<svg width="1440" height="291" viewBox="0 0 1440 291" fill="none" xmlns="http://www.w3.org/2000/svg">
<rect width="1440" height="290.698" transform="translate(0 0.302246)" fill="#F5F5F5"/>
<path d="M174.268 223.355H178.996C179.1 222.627 179.16 221.863 179.176 221.063V220.151H179.824V220.919C179.824 221.783 179.764 222.595 179.644 223.355H184.732V224.003H179.92C180.76 226.827 182.436 228.991 184.948 230.495L184.552 231.023C182.032 229.487 180.332 227.275 179.452 224.387C178.772 227.483 177.1 229.719 174.436 231.095L174.028 230.555C176.66 229.259 178.28 227.075 178.888 224.003H174.268V223.355ZM193.444 226.319C193.084 226.447 192.776 226.539 192.52 226.595C192.72 227.179 192.832 227.823 192.856 228.527C192.856 229.447 192.732 230.095 192.484 230.471C192.212 230.863 191.58 231.059 190.588 231.059H190.168L189.952 230.495H190.504C191.24 230.479 191.704 230.367 191.896 230.159C192.12 229.871 192.232 229.327 192.232 228.527C192.224 228.247 192.2 227.979 192.16 227.723C190.84 228.803 189.032 229.695 186.736 230.399L186.412 229.835C188.852 229.115 190.72 228.199 192.016 227.087C191.928 226.743 191.792 226.391 191.608 226.031C190.456 226.959 188.88 227.711 186.88 228.287L186.568 227.723C188.64 227.155 190.224 226.431 191.32 225.551C191.12 225.255 190.924 225.007 190.732 224.807L190.348 224.999C189.46 225.407 188.38 225.787 187.108 226.139L186.76 225.599C187.928 225.327 188.972 224.995 189.892 224.603C190.42 224.371 190.924 224.111 191.404 223.823H187.888V223.211H195.124V223.823H192.34C191.956 224.087 191.584 224.327 191.224 224.543C191.68 225.007 192.04 225.519 192.304 226.079C193.472 225.767 194.576 225.267 195.616 224.579L196.06 225.011C195.412 225.451 194.716 225.823 193.972 226.127C194.548 227.711 195.484 228.971 196.78 229.907L196.324 230.447C194.964 229.367 194.004 227.991 193.444 226.319ZM191.548 220.055C191.708 220.431 191.852 220.835 191.98 221.267H196.504V223.235H195.856V221.879H187.132V223.235H186.484V221.267H191.344C191.224 220.931 191.072 220.563 190.888 220.163L191.548 220.055ZM198.196 220.907H208.84V221.543H207.208V229.871C207.208 230.615 206.84 230.987 206.104 230.987H204.124L203.98 230.363C204.86 230.395 205.492 230.411 205.876 230.411C206.324 230.411 206.548 230.175 206.548 229.703V221.543H198.196V220.907ZM204.136 223.583V227.831H200.272V228.923H199.648V223.583H204.136ZM200.272 227.231H203.512V224.171H200.272V227.231ZM213.904 221.471C214.984 222.679 215.84 223.775 216.472 224.759L215.932 225.143C215.3 224.119 214.44 223.011 213.352 221.819L213.904 221.471ZM218.152 227.123C217.384 228.659 216.108 229.951 214.324 230.999L213.88 230.459C215.896 229.307 217.24 227.827 217.912 226.019C218.416 224.483 218.668 222.559 218.668 220.247H219.34C219.34 222.495 219.1 224.399 218.62 225.959C218.54 226.199 218.476 226.375 218.428 226.487C219.412 227.751 220.26 229.047 220.972 230.375L220.48 230.867C219.864 229.643 219.088 228.395 218.152 227.123ZM210.904 229.091C211.096 228.971 211.192 228.795 211.192 228.563V220.655H211.864V228.743C212.864 228.351 213.836 227.867 214.78 227.291L214.972 227.939C213.788 228.619 212.5 229.207 211.108 229.703L210.904 229.091ZM222.64 222.047H224.596V221.267H222.16V220.739H224.596V220.127H225.196V220.739H227.5V221.267H225.196V222.047H227.164V224.027H225.196V224.303C225.948 224.639 226.68 225.015 227.392 225.431L227.068 225.923C226.34 225.419 225.716 225.023 225.196 224.735V226.055H224.596V224.567C223.844 225.223 223.08 225.747 222.304 226.139L222.016 225.623C222.88 225.287 223.74 224.763 224.596 224.051V224.027H222.64V222.047ZM226.612 223.559V222.527H225.196V223.559H226.612ZM224.596 223.559V222.527H223.18V223.559H224.596ZM229.06 221.747C228.972 221.939 228.868 222.151 228.748 222.383C229.108 223.095 229.596 223.707 230.212 224.219L230.344 224.087C230.84 223.503 231.16 222.723 231.304 221.747H229.06ZM229.756 224.603C229.22 224.139 228.772 223.583 228.412 222.935C228.22 223.223 228.016 223.487 227.8 223.727L227.416 223.235C228.176 222.371 228.692 221.319 228.964 220.079L229.564 220.151C229.484 220.495 229.388 220.835 229.276 221.171H232.708V221.747H231.892C231.724 222.883 231.364 223.787 230.812 224.459L230.692 224.579C231.324 225.003 232.04 225.335 232.84 225.575L232.492 226.103C231.612 225.815 230.86 225.443 230.236 224.987C229.652 225.411 228.88 225.763 227.92 226.043L227.692 225.503C228.548 225.263 229.236 224.963 229.756 224.603ZM227.092 227.147H222.784V226.571H232.24V227.147H227.74V228.371H231.568V228.947H227.74V230.171H232.804V230.771H222.196V230.171H224.176V227.807H224.8V230.171H227.092V227.147ZM238.66 220.655H244.312V226.067H241.816V227.711H244.552V228.335H241.816V230.063H244.936V230.699H238.048V230.063H241.168V228.335H238.408V227.711H241.168V226.067H238.66V220.655ZM243.676 225.479V223.643H241.816V225.479H243.676ZM241.168 225.479V223.643H239.296V225.479H241.168ZM239.296 223.067H241.168V221.243H239.296V223.067ZM241.816 221.243V223.067H243.676V221.243H241.816ZM234.316 224.651H235.684V221.603H234.136V220.979H237.868V221.603H236.332V224.651H237.724V225.275H236.332V228.215C236.852 228.031 237.372 227.827 237.892 227.603V228.227C236.748 228.731 235.492 229.151 234.124 229.487L233.968 228.875C234.488 228.771 235.06 228.623 235.684 228.431V225.275H234.316V224.651ZM246.124 225.179H256.864V225.827H246.124V225.179ZM258.196 220.835H268.792V221.471H263.5V223.475C265.012 224.251 266.548 225.151 268.108 226.175L267.724 226.751C266.068 225.631 264.66 224.763 263.5 224.147V231.107H262.864V221.471H258.196V220.835ZM273.904 221.471C274.984 222.679 275.84 223.775 276.472 224.759L275.932 225.143C275.3 224.119 274.44 223.011 273.352 221.819L273.904 221.471ZM278.152 227.123C277.384 228.659 276.108 229.951 274.324 230.999L273.88 230.459C275.896 229.307 277.24 227.827 277.912 226.019C278.416 224.483 278.668 222.559 278.668 220.247H279.34C279.34 222.495 279.1 224.399 278.62 225.959C278.54 226.199 278.476 226.375 278.428 226.487C279.412 227.751 280.26 229.047 280.972 230.375L280.48 230.867C279.864 229.643 279.088 228.395 278.152 227.123ZM270.904 229.091C271.096 228.971 271.192 228.795 271.192 228.563V220.655H271.864V228.743C272.864 228.351 273.836 227.867 274.78 227.291L274.972 227.939C273.788 228.619 272.5 229.207 271.108 229.703L270.904 229.091ZM290.308 220.271C290.06 220.799 289.776 221.275 289.456 221.699H292.84V222.347H282.148V221.699H285.568C285.32 221.123 285.044 220.627 284.74 220.211L285.412 220.103C285.692 220.527 285.972 221.059 286.252 221.699H288.748C289.084 221.203 289.392 220.651 289.672 220.043L290.308 220.271ZM285.34 230.999L285.16 230.363L286.072 230.387C286.432 230.387 286.612 230.183 286.612 229.775V228.419H283.684V231.095H283.048V223.487H287.248V229.907C287.248 230.635 286.928 230.999 286.288 230.999H285.34ZM283.684 227.819H286.612V226.271H283.684V227.819ZM283.684 225.683H286.612V224.099H283.684V225.683ZM289.372 230.963L289.228 230.351C289.756 230.375 290.252 230.387 290.716 230.387C291.092 230.387 291.28 230.187 291.28 229.787V223.103H291.928V229.955C291.928 230.627 291.6 230.963 290.944 230.963H289.372ZM288.76 224.003H289.408V229.199H288.76V224.003ZM298.252 222.275V230.339H297.628V229.607H295.204V230.675H294.58V222.275H295.66C295.908 221.595 296.088 220.879 296.2 220.127L296.86 220.211C296.732 220.947 296.54 221.635 296.284 222.275H298.252ZM295.204 229.007H297.628V226.163H295.204V229.007ZM295.204 225.575H297.628V222.899H295.204V225.575ZM300.292 224.987C301.212 226.003 301.908 226.883 302.38 227.627L301.864 227.999C301.384 227.223 300.684 226.331 299.764 225.323L300.292 224.987ZM304.468 222.287C304.468 226.135 304.412 228.531 304.3 229.475C304.18 230.435 303.624 230.915 302.632 230.915L301.456 230.891L301.3 230.291C301.78 230.315 302.2 230.327 302.56 230.327C303.208 230.327 303.58 229.971 303.676 229.259C303.764 228.603 303.82 226.495 303.844 222.935H300.304C299.96 223.727 299.556 224.427 299.092 225.035L298.708 224.531C299.572 223.331 300.16 221.859 300.472 220.115L301.108 220.187C300.956 220.971 300.772 221.671 300.556 222.287H304.468ZM313.144 227.087H310.684V226.463H316.276V227.087H313.792V230.027H316.828V230.675H310.132V230.027H313.144V227.087ZM313.828 223.691C312.932 224.507 311.808 225.179 310.456 225.707L310.036 225.179C312.356 224.291 313.96 223.023 314.848 221.375H310.612V220.739H315.64V221.255C315.288 222.007 314.824 222.683 314.248 223.283C315.312 223.963 316.208 224.643 316.936 225.323L316.48 225.791C315.832 225.143 314.948 224.443 313.828 223.691ZM309.988 229.163C308.86 229.747 307.592 230.211 306.184 230.555L306.1 229.919C307.572 229.583 308.868 229.131 309.988 228.563V229.163ZM308.836 220.403C308.204 221.995 307.568 223.255 306.928 224.183C307.56 224.111 308.212 224.027 308.884 223.931C309.204 223.315 309.448 222.859 309.616 222.563L310.216 222.779C309.008 224.963 308.028 226.467 307.276 227.291C308.204 227.123 309.116 226.883 310.012 226.571V227.171C308.82 227.571 307.644 227.851 306.484 228.011L306.304 227.411C306.416 227.363 306.52 227.299 306.616 227.219C307.168 226.659 307.808 225.759 308.536 224.519C308.112 224.583 307.372 224.683 306.316 224.819L306.16 224.219C306.264 224.163 306.356 224.087 306.436 223.991C307.116 222.911 307.708 221.635 308.212 220.163L308.836 220.403ZM184.636 237.763V238.411H175.78V242.083C175.732 244.595 175.304 246.587 174.496 248.059L173.992 247.615C174.72 246.279 175.096 244.435 175.12 242.083V237.763H184.636ZM184.048 241.327C184.024 244.487 183.876 246.375 183.604 246.991C183.316 247.615 182.812 247.927 182.092 247.927C181.7 247.927 181.228 247.915 180.676 247.891L180.496 247.291C181.072 247.299 181.552 247.311 181.936 247.327C182.568 247.303 182.96 247.003 183.112 246.427C183.28 245.851 183.376 244.347 183.4 241.915H180.412C180.268 243.267 179.968 244.399 179.512 245.311C178.904 246.471 177.896 247.387 176.488 248.059L176.128 247.483C177.48 246.843 178.448 245.951 179.032 244.807C179.4 243.967 179.644 243.003 179.764 241.915H176.848V241.327H179.812C179.828 241.103 179.844 240.751 179.86 240.271V239.107H180.496V240.271C180.496 240.639 180.484 240.991 180.46 241.327H184.048ZM196.324 238.015V247.603H195.676V246.607H192.532V247.711H191.896V238.015H196.324ZM192.532 245.995H195.676V238.627H192.532V245.995ZM186.388 240.499H188.56V238.567C187.888 238.679 187.232 238.759 186.592 238.807L186.376 238.207C188.112 238.087 189.608 237.779 190.864 237.283L191.176 237.835C190.496 238.091 189.832 238.291 189.184 238.435V240.499H191.308V241.111H189.184V241.795C189.928 242.475 190.644 243.211 191.332 244.003L190.948 244.555C190.268 243.643 189.68 242.923 189.184 242.395V248.023H188.56V242.263C188.04 243.519 187.304 244.659 186.352 245.683L186.076 244.999C187.252 243.847 188.08 242.551 188.56 241.111H186.388V240.499ZM203.2 239.539C202.656 240.699 202.008 241.727 201.256 242.623L200.8 242.083C201.92 240.771 202.808 239.099 203.464 237.067L204.112 237.223C203.96 237.695 203.752 238.255 203.488 238.903H208.864V239.539H204.676V241.723H208.312V242.371H204.676V244.591H208.408V245.227H204.676V248.083H204.028V239.539H203.2ZM199.588 241.051C199.14 241.643 198.668 242.195 198.172 242.707L197.968 242.023C199.296 240.583 200.264 238.951 200.872 237.127L201.472 237.403C201.144 238.371 200.732 239.263 200.236 240.079V248.083H199.588V241.051ZM212.248 237.703H218.728V241.435H212.248V237.703ZM218.068 240.811V238.327H212.908V240.811H218.068ZM214.732 242.851V247.891H214.096V247.255H211.324V247.891H210.688V242.851H214.732ZM211.324 246.643H214.096V243.463H211.324V246.643ZM220.312 242.851V247.891H219.664V247.255H216.772V247.891H216.136V242.851H220.312ZM216.772 246.643H219.664V243.463H216.772V246.643ZM222.364 245.107V244.495H227.212V243.775H227.86V244.495H232.636V245.107H228.796C229.628 245.987 230.952 246.679 232.768 247.183L232.492 247.759C230.452 247.087 229.008 246.203 228.16 245.107H227.86V248.095H227.212V245.107H226.888C226.152 246.155 224.716 247.059 222.58 247.819L222.232 247.255C224.216 246.631 225.564 245.915 226.276 245.107H222.364ZM223.588 239.887C223.212 240.327 222.816 240.731 222.4 241.099L222.064 240.583C223.16 239.607 223.984 238.451 224.536 237.115L225.136 237.271C225.016 237.591 224.864 237.927 224.68 238.279H227.488C227.312 237.855 227.14 237.491 226.972 237.187L227.62 237.067C227.796 237.451 227.96 237.855 228.112 238.279H232.072V238.855H228.172V239.815H231.652V240.343H228.172V241.279H231.652V241.807H228.172V242.827H232.288V243.391H223.588V239.887ZM227.536 242.827V241.807H224.2V242.827H227.536ZM227.536 241.279V240.343H224.2V241.279H227.536ZM227.536 239.815V238.855H224.344L224.2 239.083V239.815H227.536ZM237.904 238.471C238.984 239.679 239.84 240.775 240.472 241.759L239.932 242.143C239.3 241.119 238.44 240.011 237.352 238.819L237.904 238.471ZM242.152 244.123C241.384 245.659 240.108 246.951 238.324 247.999L237.88 247.459C239.896 246.307 241.24 244.827 241.912 243.019C242.416 241.483 242.668 239.559 242.668 237.247H243.34C243.34 239.495 243.1 241.399 242.62 242.959C242.54 243.199 242.476 243.375 242.428 243.487C243.412 244.751 244.26 246.047 244.972 247.375L244.48 247.867C243.864 246.643 243.088 245.395 242.152 244.123ZM234.904 246.091C235.096 245.971 235.192 245.795 235.192 245.563V237.655H235.864V245.743C236.864 245.351 237.836 244.867 238.78 244.291L238.972 244.939C237.788 245.619 236.5 246.207 235.108 246.703L234.904 246.091ZM255.196 242.935V248.071H254.572V247.495H248.452V248.071H247.828V242.935H255.196ZM248.452 246.919H251.188V245.491H248.452V246.919ZM251.812 246.919H254.572V245.491H251.812V246.919ZM248.452 244.939H251.188V243.511H248.452V244.939ZM251.812 243.511V244.939H254.572V243.511H251.812ZM250.66 237.139C250.484 237.427 250.272 237.727 250.024 238.039H255.016V238.543C254.256 239.479 253.3 240.291 252.148 240.979C253.492 241.579 255.092 241.999 256.948 242.239L256.648 242.827C254.648 242.523 252.944 242.019 251.536 241.315C250.072 242.059 248.336 242.599 246.328 242.935L246.04 242.371C247.888 242.099 249.516 241.635 250.924 240.979C250.092 240.499 249.388 239.955 248.812 239.347C248.26 239.843 247.672 240.283 247.048 240.667L246.628 240.163C248.044 239.323 249.172 238.267 250.012 236.995L250.66 237.139ZM249.208 238.963C249.832 239.627 250.604 240.199 251.524 240.679C252.564 240.111 253.46 239.427 254.212 238.627H249.532C249.38 238.779 249.272 238.891 249.208 238.963ZM263.2 237.151H263.848V239.035H267.664V245.623H267.028V244.819H263.848V248.047H263.2V244.819H259.972V245.707H259.336V239.035H263.2V237.151ZM259.972 244.195H263.2V242.203H259.972V244.195ZM263.848 244.195H267.028V242.203H263.848V244.195ZM259.972 241.615H263.2V239.647H259.972V241.615ZM263.848 241.615H267.028V239.647H263.848V241.615ZM276.964 237.127H277.6V237.979H280.636V238.531H277.6V239.479H280.192V240.019H277.6V240.991H280.948V241.555H273.652V240.991H276.964V240.019H274.456V239.479H276.964V238.531H273.976V237.979H276.964V237.127ZM275.236 244.579V245.611H279.364V244.579H275.236ZM279.364 244.063V243.019H275.236V244.063H279.364ZM275.236 246.139V248.071H274.624V242.467H279.988V247.135C279.988 247.719 279.68 248.011 279.064 248.011H278.056L277.888 247.423L278.872 247.459C279.2 247.459 279.364 247.307 279.364 247.003V246.139H275.236ZM271.348 237.283C272.188 237.915 272.888 238.535 273.448 239.143L273.004 239.599C272.46 238.991 271.756 238.367 270.892 237.727L271.348 237.283ZM270.028 240.871H272.452V246.343C272.812 246.023 273.24 245.603 273.736 245.083L273.904 245.779C273.264 246.451 272.572 247.063 271.828 247.615L271.576 247.027C271.736 246.883 271.816 246.727 271.816 246.559V241.507H270.028V240.871ZM292.324 238.015V247.603H291.676V246.607H288.532V247.711H287.896V238.015H292.324ZM288.532 245.995H291.676V238.627H288.532V245.995ZM282.388 240.499H284.56V238.567C283.888 238.679 283.232 238.759 282.592 238.807L282.376 238.207C284.112 238.087 285.608 237.779 286.864 237.283L287.176 237.835C286.496 238.091 285.832 238.291 285.184 238.435V240.499H287.308V241.111H285.184V241.795C285.928 242.475 286.644 243.211 287.332 244.003L286.948 244.555C286.268 243.643 285.68 242.923 285.184 242.395V248.023H284.56V242.263C284.04 243.519 283.304 244.659 282.352 245.683L282.076 244.999C283.252 243.847 284.08 242.551 284.56 241.111H282.388V240.499ZM294.196 237.679H304.816V238.303H299.932C299.812 238.919 299.644 239.499 299.428 240.043H304.108V248.107H303.472V247.459H295.564V248.107H294.928V240.043H298.78C299.012 239.483 299.176 238.903 299.272 238.303H294.196V237.679ZM295.564 246.835H297.424V240.655H295.564V246.835ZM298.036 246.835H300.964V245.119H298.036V246.835ZM301.576 246.835H303.472V240.655H301.576V246.835ZM298.036 244.555H300.964V242.899H298.036V244.555ZM298.036 242.323H300.964V240.655H298.036V242.323ZM311.248 242.695H310.048V242.083H313.084V242.695H311.884V246.163C312.428 246.035 312.984 245.891 313.552 245.731V246.355C312.52 246.659 311.388 246.915 310.156 247.123L310 246.499L311.248 246.283V242.695ZM315.688 247.855C315.304 247.855 314.956 247.547 314.644 246.931C314.292 246.227 314.044 245.251 313.9 244.003C313.764 243.011 313.672 241.679 313.624 240.007H309.772V239.359H313.612C313.596 238.879 313.588 238.123 313.588 237.091H314.236C314.236 238.139 314.244 238.895 314.26 239.359H316.708V240.007H314.272C314.328 242.223 314.468 243.911 314.692 245.071C314.972 246.415 315.304 247.107 315.688 247.147C315.984 247.099 316.268 246.335 316.54 244.855L317.044 245.275C316.668 246.995 316.216 247.855 315.688 247.855ZM315.268 237.079C315.836 237.727 316.248 238.247 316.504 238.639L316.036 238.963C315.74 238.483 315.332 237.955 314.812 237.379L315.268 237.079ZM307.348 237.259C308.14 237.891 308.8 238.527 309.328 239.167L308.872 239.623C308.352 238.991 307.688 238.351 306.88 237.703L307.348 237.259ZM306.028 240.871H308.416V246.319C308.792 245.991 309.224 245.555 309.712 245.011L309.88 245.695C309.224 246.415 308.536 247.051 307.816 247.603L307.564 247.015C307.716 246.879 307.792 246.743 307.792 246.607V241.507H306.028V240.871Z" fill="#848484"/>
<path d="M221.16 181.007C220.787 181.673 220.38 182.287 219.94 182.847H225V184.687H206.98V182.847H212.18C211.833 182.153 211.44 181.493 211 180.867L213 180.547C213.4 181.2 213.807 181.967 214.22 182.847H217.84C218.373 182.113 218.867 181.287 219.32 180.367L221.16 181.007ZM212.42 198.847L211.92 196.987L213.36 197.047C213.813 197.047 214.04 196.733 214.04 196.107V194.767H210.12V199.007H208.26V185.927H215.88V196.527C215.88 198.073 215.247 198.847 213.98 198.847H212.42ZM210.12 193.087H214.04V191.227H210.12V193.087ZM210.12 189.547H214.04V187.687H210.12V189.547ZM219.08 198.787L218.68 196.967C219.52 197.047 220.333 197.087 221.12 197.087C221.6 197.087 221.84 196.813 221.84 196.267V185.507H223.74V196.747C223.74 198.107 223.087 198.787 221.78 198.787H219.08ZM217.72 187.007H219.56V195.547H217.72V187.007ZM228.28 180.607H230.12V182.667H233.58V180.647H235.42V182.667H236.46V184.427H235.42V192.447H236.56V194.207H226.98V192.447H228.28V184.427H227.2V182.667H228.28V180.607ZM230.12 192.447H233.58V190.887H230.12V192.447ZM233.58 184.427H230.12V186.007H233.58V184.427ZM230.12 189.227H233.58V187.667H230.12V189.227ZM233.68 194.447C234.493 195.473 235.147 196.4 235.64 197.227C236.773 195.453 237.347 193.28 237.36 190.707V181.147H244.44V196.827C244.44 198.133 243.787 198.787 242.48 198.787H240.4L239.88 196.927C240.84 196.98 241.507 197.007 241.88 197.007C242.32 197.007 242.54 196.72 242.54 196.147V192.547H239.14C238.86 195.16 238.06 197.347 236.74 199.107L235.38 197.847L234.24 198.647C233.773 197.7 233.1 196.613 232.22 195.387L233.68 194.447ZM230.86 195.227C230.153 196.627 229.307 197.86 228.32 198.927L226.82 197.847C227.78 196.9 228.62 195.78 229.34 194.487L230.86 195.227ZM239.26 187.727V190.807H242.54V187.727H239.26ZM242.54 186.007V182.947H239.26V186.007H242.54ZM248.52 181.047C249.84 182.86 250.833 184.42 251.5 185.727L249.92 186.807C249.173 185.38 248.167 183.793 246.9 182.047L248.52 181.047ZM251.56 190.507C250.733 193.4 249.787 196.187 248.72 198.867L246.92 198.087C248.053 195.353 249.027 192.6 249.84 189.827L251.56 190.507ZM255.18 189.627V191.907H258.86V189.627H255.18ZM255.18 193.647V196.127H258.86V193.647H255.18ZM255.18 197.887V198.987H253.32V187.847C252.693 188.767 252.16 189.5 251.72 190.047L251.1 188.087C252.78 185.74 253.953 183.207 254.62 180.487L256.44 180.847C256.16 181.86 255.833 182.833 255.46 183.767H259.16C258.867 182.793 258.513 181.82 258.1 180.847L259.92 180.327C260.413 181.74 260.76 182.887 260.96 183.767H264.7V185.567H260.7V187.867H264.28V189.627H260.7V191.907H264.32V193.647H260.7V196.127H265.12V197.887H255.18ZM258.86 185.567H255.18V187.867H258.86V185.567ZM282.5 190.027V198.967H280.7V198.207H271.34V198.967H269.54V190.107C268.9 190.24 268.26 190.36 267.62 190.467L266.8 188.807C269.613 188.433 272.1 187.793 274.26 186.887C273.233 186.233 272.327 185.513 271.54 184.727C270.74 185.46 269.853 186.133 268.88 186.747L267.66 185.267C269.78 184.053 271.593 182.387 273.1 180.267L274.98 180.687L274.22 181.787H282.08V183.227C280.933 184.613 279.54 185.833 277.9 186.887C280.033 187.7 282.467 188.287 285.2 188.647L284.38 190.327C281.207 189.86 278.44 189.053 276.08 187.907C274.213 188.813 272.153 189.52 269.9 190.027H282.5ZM272.66 183.647C273.633 184.58 274.76 185.38 276.04 186.047C277.453 185.273 278.667 184.407 279.68 183.447H272.86L272.66 183.647ZM271.34 196.607H275.1V194.847H271.34V196.607ZM276.9 196.607H280.7V194.847H276.9V196.607ZM271.34 193.327H275.1V191.607H271.34V193.327ZM276.9 191.607V193.327H280.7V191.607H276.9Z" fill="#525252"/>
<circle cx="246" cy="125.907" r="35" fill="#E4E4E4"/>
<path d="M244.333 138.282V126.865L234.333 121.074V132.49L244.333 138.282ZM247.667 138.282L257.667 132.49V121.074L247.667 126.865V138.282ZM244.333 142.115L232.667 135.407C232.139 135.101 231.729 134.699 231.437 134.199C231.144 133.699 230.999 133.143 231 132.532V119.282C231 118.671 231.146 118.115 231.438 117.615C231.731 117.115 232.14 116.712 232.667 116.407L244.333 109.699C244.861 109.393 245.417 109.24 246 109.24C246.583 109.24 247.139 109.393 247.667 109.699L259.333 116.407C259.861 116.712 260.271 117.115 260.563 117.615C260.856 118.115 261.001 118.671 261 119.282V132.532C261 133.143 260.854 133.699 260.562 134.199C260.269 134.699 259.86 135.101 259.333 135.407L247.667 142.115C247.139 142.421 246.583 142.574 246 142.574C245.417 142.574 244.861 142.421 244.333 142.115ZM252.667 120.115L255.875 118.282L246 112.574L242.75 114.449L252.667 120.115ZM246 123.99L249.25 122.115L239.375 116.407L236.125 118.282L246 123.99Z" fill="#545454"/>
<rect x="719.5" y="204" width="227" height="63" rx="12" fill="#0067D1" fill-opacity="0.1" stroke="#0067D1" stroke-width="3" stroke-linecap="round" stroke-linejoin="round" stroke-dasharray="10 10"/>
<path d="M387.22 194.347C386.66 193.44 386.133 192.64 385.64 191.947C384.96 193.747 384.16 195.307 383.24 196.627L382.02 195.147C382.94 193.747 383.727 192.087 384.38 190.167C383.607 189.1 382.727 187.987 381.74 186.827L382.9 185.687C383.46 186.273 384.153 187.093 384.98 188.147C385.3 186.813 385.553 185.473 385.74 184.127L387.48 184.427C387.173 186.493 386.787 188.327 386.32 189.927C387 190.887 387.72 191.947 388.48 193.107L387.22 194.347ZM392.98 195.307C392.473 194.4 391.9 193.44 391.26 192.427C390.513 194.24 389.647 195.8 388.66 197.107L387.46 195.647C388.487 194.193 389.353 192.507 390.06 190.587C389.22 189.347 388.36 188.167 387.48 187.047L388.66 185.927C389.327 186.673 390.007 187.54 390.7 188.527C391.06 187.18 391.36 185.733 391.6 184.187L393.36 184.487C393 186.66 392.54 188.64 391.98 190.427C392.753 191.613 393.513 192.82 394.26 194.047L392.98 195.307ZM392.16 198.847L391.66 197.007L393.54 197.087C394.033 197.087 394.28 196.853 394.28 196.387V183.027H381.72V198.967H379.84V181.207H396.16V196.807C396.16 198.167 395.493 198.847 394.16 198.847H392.16ZM406.08 180.507H408.04V186.527H415.44V188.367H408.04V196.407H416.98V198.247H399.06V196.407H406.08V180.507ZM425.8 190.207C425.093 190.553 424.38 190.88 423.66 191.187V196.907C423.66 198.24 423.02 198.907 421.74 198.907H419.86L419.42 197.087C420.007 197.167 420.553 197.207 421.06 197.207C421.553 197.207 421.8 196.953 421.8 196.447V191.927C420.92 192.247 420.04 192.547 419.16 192.827L418.68 190.947C419.84 190.68 420.88 190.387 421.8 190.067V185.847H419.06V184.027H421.8V180.567H423.66V184.027H425.74V185.847H423.66V189.347C424.433 189 425.147 188.66 425.8 188.327V190.207ZM428.42 190.087V198.967H426.62V181.207H435.84C435.84 183.513 435.713 185.08 435.46 185.907C435.207 186.667 434.407 187.047 433.06 187.047H431.56L431.04 185.407L432.2 185.427C432.667 185.427 433.02 185.407 433.26 185.367C433.473 185.3 433.64 185.167 433.76 184.967C433.893 184.687 433.98 184.007 434.02 182.927H428.42V188.347H435.98V189.987C435.66 192.053 435.02 193.807 434.06 195.247C434.993 196.1 436.087 196.86 437.34 197.527L436.06 199.007C434.847 198.233 433.82 197.44 432.98 196.627C432.073 197.6 430.967 198.4 429.66 199.027L428.74 197.367C429.9 196.807 430.88 196.087 431.68 195.207C430.413 193.647 429.62 191.94 429.3 190.087H428.42ZM431 190.087C431.253 191.433 431.833 192.68 432.74 193.827C433.38 192.773 433.867 191.527 434.2 190.087H431ZM445.34 197.847V198.907H443.44V192.047C442.347 192.38 441.153 192.7 439.86 193.007L438.86 191.167C442.233 190.513 445.02 189.68 447.22 188.667C446.38 187.987 445.273 187.253 443.9 186.467L445.54 185.447C446.913 186.287 448.02 187.067 448.86 187.787C450.66 186.693 452.007 185.42 452.9 183.967H445.98C444.607 185.22 442.893 186.34 440.84 187.327L439.56 185.687C442.933 184.247 445.22 182.5 446.42 180.447L448.5 180.687C448.193 181.247 447.887 181.747 447.58 182.187H455.08V183.867C453.773 186.413 451.433 188.527 448.06 190.207H455.72V198.907H453.8V197.847H445.34ZM453.8 196.007V191.967H445.34V196.007H453.8Z" fill="#525252"/>
<circle cx="418" cy="125.907" r="35" fill="#0067D1"/>
<path d="M423.357 114.122H426.571C427.139 114.122 427.684 114.347 428.086 114.749C428.488 115.151 428.714 115.696 428.714 116.264V137.693C428.714 138.261 428.488 138.806 428.086 139.208C427.684 139.61 427.139 139.836 426.571 139.836H409.428C408.86 139.836 408.315 139.61 407.913 139.208C407.511 138.806 407.285 138.261 407.285 137.693V116.264C407.285 115.696 407.511 115.151 407.913 114.749C408.315 114.347 408.86 114.122 409.428 114.122H412.642" stroke="white" stroke-width="3" stroke-linecap="round" stroke-linejoin="round"/>
<path d="M421.214 111.979H414.785C413.602 111.979 412.643 112.938 412.643 114.121V115.193C412.643 116.376 413.602 117.336 414.785 117.336H421.214C422.397 117.336 423.357 116.376 423.357 115.193V114.121C423.357 112.938 422.397 111.979 421.214 111.979Z" stroke="white" stroke-width="3" stroke-linecap="round" stroke-linejoin="round"/>
<path d="M412.643 129.121L416.928 132.336L422.285 123.764" stroke="white" stroke-width="3" stroke-linecap="round" stroke-linejoin="round"/>
<path d="M552.24 188.207H554.12V198.987H552.24V188.207ZM563.98 198.907L563.52 197.187L565.32 197.247C565.76 197.247 565.98 196.953 565.98 196.367V187.647H558.56V185.907H567.86V196.887C567.86 198.233 567.14 198.907 565.7 198.907H563.98ZM556.26 189.047H563.8V196.847H556.26V189.047ZM562.04 195.267V193.667H558.06V195.267H562.04ZM558.06 192.147H562.04V190.587H558.06V192.147ZM554.66 185.087C555.7 186.007 556.5 186.827 557.06 187.547L555.66 188.507C555.1 187.8 554.3 186.947 553.26 185.947L554.66 185.087ZM554.12 183.467C553.64 184.307 553.1 185.067 552.5 185.747L550.9 184.707C552.073 183.413 552.927 181.993 553.46 180.447L555.3 180.847C555.287 180.9 555.16 181.22 554.92 181.807H559.88V183.467H557.24C557.64 184.027 557.98 184.593 558.26 185.167L556.58 185.787C556.193 184.96 555.753 184.187 555.26 183.467H554.12ZM562.62 183.467C562.273 184.16 561.86 184.82 561.38 185.447L559.78 184.407C560.767 183.18 561.46 181.867 561.86 180.467L563.68 180.867L563.36 181.807H568.96V183.467H565.96C566.32 183.987 566.64 184.5 566.92 185.007L565.24 185.627C564.88 184.88 564.46 184.16 563.98 183.467H562.62ZM588.66 181.367V183.227H574.28V188.867C574.2 193.067 573.5 196.427 572.18 198.947L570.7 197.627C571.753 195.493 572.3 192.573 572.34 188.867V181.367H588.66ZM587.98 187.307C587.94 192.773 587.66 196.047 587.14 197.127C586.607 198.207 585.673 198.747 584.34 198.747C583.993 198.747 583.207 198.72 581.98 198.667L581.48 196.887C582.44 196.927 583.247 196.967 583.9 197.007C584.833 196.967 585.407 196.52 585.62 195.667C585.873 194.773 586.02 192.553 586.06 189.007H581.86C581.62 191.14 581.12 192.94 580.36 194.407C579.307 196.393 577.633 197.9 575.34 198.927L574.28 197.267C576.533 196.133 578.06 194.733 578.86 193.067C579.367 191.92 579.733 190.567 579.96 189.007H575.46V187.307H580.12L580.18 186.007V184.027H582.08V186.007L582.02 187.307H587.98ZM601.18 183.707H598.36V181.887H608.54C608.54 188.66 608.433 192.9 608.22 194.607C607.98 197.3 606.887 198.647 604.94 198.647C604.62 198.647 603.84 198.613 602.6 198.547L602.14 196.807C603.207 196.873 604.033 196.907 604.62 196.907C605.633 196.907 606.22 195.853 606.38 193.747C606.487 192.867 606.56 189.52 606.6 183.707H603.06V185.247C602.98 191.54 601.247 196.12 597.86 198.987L596.4 197.707C599.533 195.107 601.127 190.953 601.18 185.247V183.707ZM593.48 191.387C592.747 192.133 592.007 192.847 591.26 193.527L590.7 191.607C593.14 189.407 594.78 187.267 595.62 185.187H591.16V183.467H593.64C593.32 182.6 592.96 181.76 592.56 180.947L594.4 180.467C594.893 181.613 595.267 182.613 595.52 183.467H597.48V185.007C597 186.407 596.273 187.793 595.3 189.167V189.207L596.12 189.787C596.72 189.32 597.327 188.64 597.94 187.747L599.08 188.887C598.507 189.66 597.907 190.273 597.28 190.727C597.88 191.247 598.353 191.7 598.7 192.087L597.68 193.687C596.84 192.593 596.047 191.693 595.3 190.987V198.947H593.48V191.387ZM614.26 183.567C613.78 184.447 613.24 185.247 612.64 185.967L611 184.967C612.213 183.527 613.08 182.013 613.6 180.427L615.42 180.827C615.38 180.96 615.32 181.133 615.24 181.347C615.133 181.6 615.067 181.773 615.04 181.867H619.98V183.567H617.72C618.013 183.953 618.3 184.387 618.58 184.867L616.82 185.527C616.513 184.887 616.133 184.233 615.68 183.567H614.26ZM622.92 183.567C622.533 184.3 622.08 185 621.56 185.667L619.96 184.647C621 183.367 621.74 181.993 622.18 180.527L624.02 180.907L623.68 181.867H629.08V183.567H626.38C626.74 184.02 627.04 184.46 627.28 184.887L625.54 185.547C625.18 184.867 624.78 184.207 624.34 183.567H622.92ZM615.18 185.847H617V191.067C616.96 194.68 615.853 197.313 613.68 198.967L612.28 197.747C614.173 196.333 615.14 194.107 615.18 191.067V185.847ZM611.82 187.587H613.64V194.247H611.82V187.587ZM622.48 187.747H617.92V186.007H628.88V187.747H624.28V189.247H628.14V194.967C628.14 196.287 627.527 196.947 626.3 196.947H625.24L624.78 195.267L625.74 195.327C626.18 195.327 626.4 195.073 626.4 194.567V190.907H624.28V199.027H622.48V190.907H620.44V197.127H618.74V189.247H622.48V187.747Z" fill="#525252"/>
<circle cx="590" cy="125.907" r="35" fill="#0067D1"/>
<path d="M602.881 118.807L594.787 110.714C594.679 110.606 594.552 110.521 594.411 110.463C594.271 110.405 594.121 110.375 593.969 110.375H580.094C579.48 110.375 578.892 110.619 578.459 111.053C578.025 111.486 577.781 112.075 577.781 112.688V138.125C577.781 138.739 578.025 139.327 578.459 139.761C578.892 140.194 579.48 140.438 580.094 140.438H600.906C601.52 140.438 602.108 140.194 602.541 139.761C602.975 139.327 603.219 138.739 603.219 138.125V119.625C603.219 119.474 603.189 119.323 603.131 119.183C603.073 119.042 602.988 118.915 602.881 118.807ZM595.125 114.323L599.272 118.469H595.125V114.323ZM600.906 138.125H580.094V112.688H592.813V119.625C592.813 119.932 592.934 120.226 593.151 120.443C593.368 120.66 593.662 120.782 593.969 120.782H600.906V138.125ZM594.324 131.065C595.007 129.981 595.266 128.683 595.052 127.42C594.838 126.157 594.166 125.017 593.165 124.218C592.163 123.418 590.902 123.016 589.623 123.088C588.344 123.159 587.136 123.7 586.23 124.606C585.324 125.512 584.784 126.72 584.712 127.999C584.641 129.278 585.043 130.539 585.842 131.54C586.641 132.541 587.781 133.213 589.044 133.427C590.308 133.641 591.605 133.382 592.69 132.7L594.307 134.319C594.414 134.426 594.542 134.511 594.682 134.569C594.823 134.627 594.973 134.657 595.125 134.657C595.277 134.657 595.427 134.627 595.568 134.569C595.708 134.511 595.836 134.426 595.943 134.319C596.05 134.211 596.136 134.084 596.194 133.943C596.252 133.803 596.282 133.652 596.282 133.5C596.282 133.349 596.252 133.198 596.194 133.058C596.136 132.917 596.05 132.79 595.943 132.682L594.324 131.065ZM587.031 128.297C587.031 127.726 587.201 127.167 587.518 126.691C587.836 126.216 588.287 125.846 588.816 125.627C589.344 125.408 589.925 125.351 590.486 125.462C591.047 125.574 591.562 125.849 591.966 126.253C592.37 126.658 592.645 127.173 592.757 127.733C592.868 128.294 592.811 128.875 592.592 129.404C592.374 129.932 592.003 130.383 591.528 130.701C591.052 131.018 590.494 131.188 589.922 131.188C589.155 131.188 588.42 130.883 587.878 130.341C587.336 129.799 587.031 129.064 587.031 128.297Z" fill="white"/>
<path d="M1208.72 182.787V198.667H1206.86V197.427H1203.78V198.667H1201.92V182.787H1208.72ZM1203.78 195.587H1206.86V184.627H1203.78V195.587ZM1194.46 180.567H1196.38V183.927H1200.4C1200.4 190.727 1200.3 194.927 1200.1 196.527C1199.9 198.047 1198.9 198.807 1197.12 198.807C1196.88 198.807 1196.36 198.773 1195.56 198.707L1195.08 196.967C1195.84 197.033 1196.42 197.067 1196.82 197.067C1197.66 197.067 1198.16 196.6 1198.32 195.667C1198.42 194.8 1198.5 191.507 1198.54 185.787H1196.38V186.327C1196.31 192.167 1195.02 196.433 1192.52 199.127L1190.98 197.767C1193.26 195.407 1194.42 191.593 1194.46 186.327V185.787H1191.44V183.927H1194.46V180.567ZM1219.28 185.287C1218.4 183.673 1217.32 182.413 1216.06 181.507L1217.64 180.507C1219.32 181.68 1220.8 183.927 1222.1 187.247C1223.99 191.913 1226.46 195.227 1229.5 197.187L1228.32 198.687C1225.18 196.807 1222.56 193.2 1220.44 187.867L1220.3 187.487C1218.94 192.327 1216.24 196.067 1212.2 198.707L1211.06 197.087C1215.22 194.353 1217.96 190.42 1219.28 185.287ZM1231.78 182.627H1238.3C1239.7 182.627 1240.79 182.96 1241.58 183.627C1242.34 184.267 1242.72 185.133 1242.72 186.227C1242.72 187.027 1242.52 187.707 1242.12 188.267C1241.7 188.8 1241.15 189.193 1240.46 189.447C1241.4 189.633 1242.12 190.013 1242.6 190.587C1243.08 191.16 1243.32 191.933 1243.32 192.907C1243.32 194.333 1242.82 195.387 1241.84 196.067C1241 196.627 1239.82 196.907 1238.3 196.907H1231.78V182.627ZM1233.96 184.427V188.687H1237.72C1238.7 188.687 1239.42 188.513 1239.88 188.167C1240.32 187.807 1240.54 187.247 1240.54 186.487C1240.54 185.767 1240.32 185.247 1239.88 184.927C1239.45 184.593 1238.74 184.427 1237.76 184.427H1233.96ZM1233.96 190.467V195.107H1238C1238.89 195.107 1239.61 194.96 1240.16 194.667C1240.81 194.28 1241.14 193.68 1241.14 192.867C1241.14 192.027 1240.88 191.413 1240.38 191.027C1239.88 190.653 1239.11 190.467 1238.06 190.467H1233.96ZM1244.21 182.627H1246.83L1250.95 189.167L1255.07 182.627H1257.69L1252.03 191.207V196.907H1249.87V191.207L1244.21 182.627ZM1259.18 182.627H1265.5C1266.96 182.627 1268.11 182.953 1268.94 183.607C1269.82 184.327 1270.26 185.36 1270.26 186.707C1270.26 187.453 1270.06 188.12 1269.66 188.707C1269.2 189.347 1268.58 189.767 1267.8 189.967V190.007C1269.06 190.287 1269.78 191.127 1269.94 192.527L1270.18 194.807C1270.26 195.687 1270.54 196.387 1271.02 196.907H1268.66C1268.32 196.48 1268.12 195.853 1268.04 195.027L1267.86 193.247C1267.78 192.473 1267.52 191.9 1267.1 191.527C1266.67 191.18 1266.04 191.007 1265.22 191.007H1261.36V196.907H1259.18V182.627ZM1261.36 184.487V189.147H1265.22C1266.16 189.147 1266.88 188.94 1267.38 188.527C1267.84 188.127 1268.08 187.547 1268.08 186.787C1268.08 186 1267.85 185.42 1267.4 185.047C1266.93 184.673 1266.2 184.487 1265.2 184.487H1261.36Z" fill="#525252"/>
<circle cx="1231" cy="125.907" r="35" fill="#0067D1"/>
<path d="M1243.64 127.554C1243.88 125.756 1243.73 123.928 1243.2 122.193C1242.67 120.458 1241.78 118.855 1240.58 117.493C1239.39 116.13 1237.91 115.038 1236.26 114.29C1234.61 113.543 1232.81 113.156 1231 113.157C1227.62 113.157 1224.38 114.5 1221.98 116.891C1219.59 119.282 1218.25 122.525 1218.25 125.907C1218.25 129.288 1219.59 132.531 1221.98 134.922C1224.38 137.313 1227.62 138.657 1231 138.657M1226.75 123.073H1226.76M1235.25 123.073H1235.26" stroke="white" stroke-width="2.8" stroke-linecap="round" stroke-linejoin="round"/>
<path d="M1227.46 130.157C1228.39 131.063 1229.67 131.573 1231 131.573C1232.33 131.573 1233.61 131.063 1234.54 130.157M1235.25 135.823L1238.08 138.657L1243.75 132.99" stroke="white" stroke-width="2.8" stroke-linecap="round" stroke-linejoin="round"/>
<path d="M769.85 103.26L769.49 101.658C769.958 101.73 770.396 101.766 770.804 101.766C771.236 101.766 771.452 101.52 771.452 101.028V97.2125C770.66 97.5245 770.006 97.7645 769.49 97.9325L769.058 96.2405C769.85 96.0605 770.648 95.8265 771.452 95.5385V91.6505H769.418V90.0125H771.452V86.8625H773.108V90.0125H774.872V91.6505H773.108V94.8545C773.672 94.5905 774.272 94.2845 774.908 93.9365V95.6105C774.44 95.8625 773.84 96.1625 773.108 96.5105V101.46C773.108 102.66 772.532 103.26 771.38 103.26H769.85ZM775.376 89.3105H779.588V86.8985H781.244V89.3105H785.456V90.9485H781.244V93.5225H784.772V95.0345C784.184 96.9305 783.218 98.5445 781.874 99.8765C783.002 100.716 784.364 101.448 785.96 102.072L785.078 103.476C783.386 102.732 781.928 101.88 780.704 100.92C779.348 101.976 777.692 102.846 775.736 103.53L774.926 102.108C776.762 101.52 778.286 100.77 779.498 99.8585C778.094 98.4545 777.152 96.8765 776.672 95.1245H775.736V93.5225H779.588V90.9485H775.376V89.3105ZM778.274 95.1245C778.706 96.5285 779.504 97.7765 780.668 98.8685C781.748 97.7885 782.558 96.5405 783.098 95.1245H778.274ZM787.814 90.9665H794.654V86.8085H796.346V90.9665H803.204V92.6045H797.912C799.064 95.4125 801.008 97.9145 803.744 100.11L802.592 101.55C799.616 98.9105 797.534 95.9585 796.346 92.6945V103.422H794.654V92.7305C793.334 96.3425 791.156 99.3065 788.12 101.622L787.184 100.092C789.896 98.1365 791.864 95.6405 793.088 92.6045H787.814V90.9665ZM799.28 86.8265C800.312 87.9065 801.104 88.8425 801.656 89.6345L800.288 90.6065C799.772 89.7905 798.992 88.8065 797.948 87.6545L799.28 86.8265ZM807.2 88.5185H811.88V86.8085H813.572V88.5185H817.568V89.4005C818.252 88.6805 818.882 87.9425 819.458 87.1865L820.718 88.1405C819.794 89.4005 818.738 90.5705 817.55 91.6505H821.456V93.2705H815.57C814.778 93.8345 814.022 94.3325 813.302 94.7645H820.466V96.2945H811.52L811.016 97.7885H819.602C819.482 100.392 819.2 101.952 818.756 102.468C818.312 102.948 817.448 103.188 816.164 103.188C815.42 103.188 814.67 103.146 813.914 103.062L813.356 101.568C814.424 101.652 815.24 101.694 815.804 101.694C816.68 101.694 817.238 101.562 817.478 101.298C817.658 101.01 817.802 100.338 817.91 99.2825H809L809.774 96.5465C808.454 97.1105 807.134 97.5905 805.814 97.9865L805.13 96.4565C807.914 95.6405 810.41 94.5785 812.618 93.2705H805.868V91.6505H811.88V90.0845H807.2V88.5185ZM815.012 91.6505C815.732 91.0865 816.35 90.5645 816.866 90.0845H813.572V91.6505H815.012ZM827.396 103.458H825.758V95.1425C825.218 96.7385 824.564 98.1665 823.796 99.4265L823.094 97.6625C824.282 95.9825 825.146 94.0505 825.686 91.8665H823.418V90.2285H825.758V86.8625H827.396V90.2285H829.376V91.8665H827.396V92.8385C828.188 93.7145 829.022 94.7405 829.898 95.9165L828.944 97.3745C828.38 96.3785 827.864 95.5025 827.396 94.7465V103.458ZM829.718 88.6805H833.984C833.744 88.0805 833.486 87.5585 833.21 87.1145L834.956 86.8265C835.196 87.3425 835.43 87.9605 835.658 88.6805H839.582V90.2465H834.65C833.774 91.7705 833 92.8865 832.328 93.5945C833.192 93.5585 834.164 93.4925 835.244 93.3965C835.688 92.7485 836.084 92.0945 836.432 91.4345L837.818 92.1725C836.018 95.7485 833.384 98.1845 829.916 99.4805L828.98 98.0585C830.972 97.3625 832.664 96.2885 834.056 94.8365C833.216 94.8845 831.998 94.9445 830.402 95.0165L830.06 93.6305C830.192 93.5945 830.3 93.5465 830.384 93.4865C831.02 93.0785 831.854 91.9985 832.886 90.2465H829.718V88.6805ZM835.55 100.002C833.87 101.49 831.908 102.63 829.664 103.422L828.728 101.964C832.892 100.596 836.018 97.9745 838.106 94.0985L839.528 94.8365C838.688 96.4085 837.716 97.7825 836.612 98.9585C837.896 100.086 838.952 101.16 839.78 102.18L838.52 103.44C837.764 102.348 836.774 101.202 835.55 100.002Z" fill="#333333"/>
<path d="M958.936 87.7587H975.064V89.3967H967.972C967.816 90.0807 967.63 90.7107 967.414 91.2867H974.218V103.815H972.562V103.059H961.492V103.815H959.836V91.2867H965.686C965.926 90.6747 966.106 90.0447 966.226 89.3967H958.936V87.7587ZM961.492 101.475H963.544V92.8527H961.492V101.475ZM965.146 101.475H968.854V99.5307H965.146V101.475ZM970.456 101.475H972.562V92.8527H970.456V101.475ZM965.146 98.0727H968.854V96.2007H965.146V98.0727ZM965.146 94.7247H968.854V92.8527H965.146V94.7247ZM984.262 95.9307H982.714V94.3287H987.484V95.9307H985.936V100.359C986.68 100.191 987.394 100.011 988.078 99.8187V101.421C986.458 101.865 984.784 102.237 983.056 102.537L982.642 100.899C983.362 100.803 983.902 100.725 984.262 100.665V95.9307ZM991.282 103.599C990.634 103.599 990.052 103.125 989.536 102.177C988.96 101.049 988.546 99.5607 988.294 97.7127C988.078 96.1287 987.934 94.1907 987.862 91.8987H982.3V90.2427H987.826C987.802 89.5707 987.79 88.5207 987.79 87.0927H989.446C989.446 88.5327 989.458 89.5827 989.482 90.2427H992.92V91.8987H989.518C989.59 94.5627 989.758 96.7707 990.022 98.5227C990.382 100.575 990.802 101.643 991.282 101.727C991.558 101.691 991.858 100.641 992.182 98.5767L993.532 99.6747C992.884 102.291 992.134 103.599 991.282 103.599ZM990.958 87.0747C991.618 87.8067 992.206 88.5327 992.722 89.2527L991.534 90.0807C991.138 89.4447 990.556 88.6887 989.788 87.8127L990.958 87.0747ZM979.114 87.2907C980.242 88.1787 981.178 89.0667 981.922 89.9547L980.752 91.1427C980.08 90.3027 979.138 89.4087 977.926 88.4607L979.114 87.2907ZM976.684 92.5107H980.734V99.9267C981.202 99.4587 981.634 99.0027 982.03 98.5587L982.48 100.359C981.46 101.451 980.392 102.405 979.276 103.221L978.628 101.691C978.928 101.427 979.078 101.133 979.078 100.809V94.1487H976.684V92.5107Z" fill="#333333"/>
<path d="M778.256 235.813V242.797H776.546V242.041H769.508V242.797H767.816V235.813H778.256ZM769.508 240.385H776.546V237.415H769.508V240.385ZM772.118 226.417L771.488 227.461H778.112V228.829C777.104 230.233 775.904 231.445 774.512 232.465C776.432 233.413 778.682 234.085 781.262 234.481L780.506 236.029C777.578 235.525 775.076 234.661 773 233.437C770.84 234.673 768.338 235.561 765.494 236.101L764.738 234.571C767.306 234.151 769.556 233.443 771.488 232.447C770.66 231.823 769.904 231.127 769.22 230.359C768.524 231.091 767.75 231.763 766.898 232.375L765.782 231.043C767.558 229.831 769.1 228.157 770.408 226.021L772.118 226.417ZM770.246 229.207C771.026 230.119 771.932 230.911 772.964 231.583C774.068 230.839 775.052 229.987 775.916 229.027H770.39C770.342 229.075 770.294 229.135 770.246 229.207ZM792.656 226.957H798.704V228.181C798.164 230.029 797.588 231.739 796.976 233.311C798.248 235.123 798.89 236.593 798.902 237.721C798.902 238.753 798.68 239.479 798.236 239.899C797.744 240.319 796.778 240.529 795.338 240.529L794.834 238.819C795.446 238.891 795.962 238.927 796.382 238.927C796.79 238.891 797.048 238.795 797.156 238.639C797.252 238.507 797.312 238.201 797.336 237.721C797.312 236.593 796.628 235.123 795.284 233.311C795.86 231.979 796.418 230.365 796.958 228.469H794.294V242.779H792.656V226.957ZM783.206 227.749H786.608C786.464 227.221 786.302 226.735 786.122 226.291L787.868 226.003C788.012 226.471 788.162 227.053 788.318 227.749H791.738V229.369H783.206V227.749ZM782.864 232.663H785.078C784.814 231.847 784.49 231.091 784.106 230.395L785.654 229.837C786.014 230.641 786.356 231.583 786.68 232.663H788.318C788.762 231.715 789.14 230.737 789.452 229.729L791.018 230.269C790.67 231.229 790.334 232.027 790.01 232.663H791.846V234.301H782.864V232.663ZM791.108 235.597V242.437H789.47V241.573H785.42V242.473H783.764V235.597H791.108ZM785.42 239.989H789.47V237.145H785.42V239.989ZM812.87 242.617L812.438 241.015L814.004 241.051C814.484 241.051 814.724 240.733 814.724 240.097V228.523H807.956V226.939H816.38V240.565C816.38 241.933 815.702 242.617 814.346 242.617H812.87ZM801.584 229.135H803.24V242.779H801.584V229.135ZM804.59 225.967C805.418 226.939 806.15 228.007 806.786 229.171L805.256 229.981C804.596 228.757 803.858 227.647 803.042 226.651L804.59 225.967ZM825.146 239.989C823.442 240.829 821.48 241.501 819.26 242.005L819.044 240.295C821.36 239.827 823.394 239.185 825.146 238.369V239.989ZM823.688 226.723C822.788 228.811 821.87 230.503 820.934 231.799C821.654 231.727 822.344 231.637 823.004 231.529L824.12 229.495L825.668 230.071C824.108 232.879 822.782 234.943 821.69 236.263C822.926 235.963 824.126 235.591 825.29 235.147V236.713C823.238 237.457 821.318 237.955 819.53 238.207L819.08 236.641C819.392 236.497 819.65 236.329 819.854 236.137C820.43 235.561 821.174 234.553 822.086 233.113L819.242 233.491L818.81 231.907C819.086 231.799 819.332 231.583 819.548 231.259C820.496 229.735 821.336 228.013 822.068 226.093L823.688 226.723ZM833.804 226.939V240.475H835.244V242.131H824.732V240.475H826.208V226.939H833.804ZM827.882 240.475H832.13V237.559H827.882V240.475ZM827.882 235.939H832.13V232.987H827.882V235.939ZM827.882 231.385H832.13V228.577H827.882V231.385ZM843.092 240.529C841.34 241.165 839.3 241.693 836.972 242.113L836.738 240.421C839.162 240.025 841.28 239.503 843.092 238.855V240.529ZM841.49 226.705C840.578 228.925 839.66 230.731 838.736 232.123C839.444 232.051 840.146 231.961 840.842 231.853C841.298 231.025 841.706 230.275 842.066 229.603L843.596 230.197C842.036 233.029 840.722 235.111 839.654 236.443C840.746 236.203 841.904 235.867 843.128 235.435V236.911C841.076 237.691 839.186 238.201 837.458 238.441L836.99 236.839C837.302 236.695 837.566 236.527 837.782 236.335C838.334 235.783 839.054 234.805 839.942 233.401C839.582 233.461 839.12 233.527 838.556 233.599L837.116 233.815L836.666 232.249C836.942 232.129 837.188 231.907 837.404 231.583C838.328 229.951 839.144 228.115 839.852 226.075L841.49 226.705ZM843.956 227.083H852.344V235.867H843.956V227.083ZM850.652 234.265V228.703H845.63V234.265H850.652ZM847.016 237.361C846.14 239.461 845.126 241.261 843.974 242.761L842.516 241.717C843.704 240.301 844.706 238.609 845.522 236.641L847.016 237.361ZM850.472 236.641C851.744 238.573 852.74 240.283 853.46 241.771L852.002 242.779C851.306 241.243 850.334 239.485 849.086 237.505L850.472 236.641ZM854.936 226.759H871.064V228.397H863.972C863.816 229.081 863.63 229.711 863.414 230.287H870.218V242.815H868.562V242.059H857.492V242.815H855.836V230.287H861.686C861.926 229.675 862.106 229.045 862.226 228.397H854.936V226.759ZM857.492 240.475H859.544V231.853H857.492V240.475ZM861.146 240.475H864.854V238.531H861.146V240.475ZM866.456 240.475H868.562V231.853H866.456V240.475ZM861.146 237.073H864.854V235.201H861.146V237.073ZM861.146 233.725H864.854V231.853H861.146V233.725ZM880.262 234.931H878.714V233.329H883.484V234.931H881.936V239.359C882.68 239.191 883.394 239.011 884.078 238.819V240.421C882.458 240.865 880.784 241.237 879.056 241.537L878.642 239.899C879.362 239.803 879.902 239.725 880.262 239.665V234.931ZM887.282 242.599C886.634 242.599 886.052 242.125 885.536 241.177C884.96 240.049 884.546 238.561 884.294 236.713C884.078 235.129 883.934 233.191 883.862 230.899H878.3V229.243H883.826C883.802 228.571 883.79 227.521 883.79 226.093H885.446C885.446 227.533 885.458 228.583 885.482 229.243H888.92V230.899H885.518C885.59 233.563 885.758 235.771 886.022 237.523C886.382 239.575 886.802 240.643 887.282 240.727C887.558 240.691 887.858 239.641 888.182 237.577L889.532 238.675C888.884 241.291 888.134 242.599 887.282 242.599ZM886.958 226.075C887.618 226.807 888.206 227.533 888.722 228.253L887.534 229.081C887.138 228.445 886.556 227.689 885.788 226.813L886.958 226.075ZM875.114 226.291C876.242 227.179 877.178 228.067 877.922 228.955L876.752 230.143C876.08 229.303 875.138 228.409 873.926 227.461L875.114 226.291ZM872.684 231.511H876.734V238.927C877.202 238.459 877.634 238.003 878.03 237.559L878.48 239.359C877.46 240.451 876.392 241.405 875.276 242.221L874.628 240.691C874.928 240.427 875.078 240.133 875.078 239.809V233.149H872.684V231.511Z" fill="#333333"/>
<path d="M723.72 31.0222H725.56L725.34 34.7022L728.7 33.3422L729.28 35.0622L725.74 36.0222L728.16 38.7622L726.74 39.8822L724.64 36.8222L722.52 39.8822L721.1 38.7622L723.52 36.0222L720 35.0622L720.58 33.3422L723.94 34.7022L723.72 31.0222ZM731.273 47.1422L730.873 45.3622C731.393 45.4422 731.88 45.4822 732.333 45.4822C732.813 45.4822 733.053 45.2089 733.053 44.6622V40.4222C732.173 40.7689 731.447 41.0356 730.873 41.2222L730.393 39.3422C731.273 39.1422 732.16 38.8822 733.053 38.5622V34.2422H730.793V32.4222H733.053V28.9222H734.893V32.4222H736.853V34.2422H734.893V37.8022C735.52 37.5089 736.187 37.1689 736.893 36.7822V38.6422C736.373 38.9222 735.707 39.2556 734.893 39.6422V45.1422C734.893 46.4756 734.253 47.1422 732.973 47.1422H731.273ZM737.413 31.6422H742.093V28.9622H743.933V31.6422H748.613V33.4622H743.933V36.3222H747.853V38.0022C747.2 40.1089 746.127 41.9022 744.633 43.3822C745.887 44.3156 747.4 45.1289 749.173 45.8222L748.193 47.3822C746.313 46.5556 744.693 45.6089 743.333 44.5422C741.827 45.7156 739.987 46.6822 737.813 47.4422L736.913 45.8622C738.953 45.2089 740.647 44.3756 741.993 43.3622C740.433 41.8022 739.387 40.0489 738.853 38.1022H737.813V36.3222H742.093V33.4622H737.413V31.6422ZM740.633 38.1022C741.113 39.6622 742 41.0489 743.293 42.2622C744.493 41.0622 745.393 39.6756 745.993 38.1022H740.633ZM751.233 33.4822H758.833V28.8622H760.713V33.4822H768.333V35.3022H762.453C763.733 38.4222 765.893 41.2022 768.933 43.6422L767.653 45.2422C764.347 42.3089 762.033 39.0289 760.713 35.4022V47.3222H758.833V35.4422C757.367 39.4556 754.947 42.7489 751.573 45.3222L750.533 43.6222C753.547 41.4489 755.733 38.6756 757.093 35.3022H751.233V33.4822ZM763.973 28.8822C765.12 30.0822 766 31.1222 766.613 32.0022L765.093 33.0822C764.52 32.1756 763.653 31.0822 762.493 29.8022L763.973 28.8822ZM777.713 44.2822C775.82 45.2156 773.64 45.9622 771.173 46.5222L770.933 44.6222C773.507 44.1022 775.767 43.3889 777.713 42.4822V44.2822ZM776.093 29.5422C775.093 31.8622 774.073 33.7422 773.033 35.1822C773.833 35.1022 774.6 35.0022 775.333 34.8822L776.573 32.6222L778.293 33.2622C776.56 36.3822 775.087 38.6756 773.873 40.1422C775.247 39.8089 776.58 39.3956 777.873 38.9022V40.6422C775.593 41.4689 773.46 42.0222 771.473 42.3022L770.973 40.5622C771.32 40.4022 771.607 40.2156 771.833 40.0022C772.473 39.3622 773.3 38.2422 774.313 36.6422L771.153 37.0622L770.673 35.3022C770.98 35.1822 771.253 34.9422 771.493 34.5822C772.547 32.8889 773.48 30.9756 774.293 28.8422L776.093 29.5422ZM787.333 29.7822V44.8222H788.933V46.6622H777.253V44.8222H778.893V29.7822H787.333ZM780.753 44.8222H785.473V41.5822H780.753V44.8222ZM780.753 39.7822H785.473V36.5022H780.753V39.7822ZM780.753 34.7222H785.473V31.6022H780.753V34.7222Z" fill="#0067D1"/>
<path d="M723.72 172.72H725.56L725.34 176.4L728.7 175.04L729.28 176.76L725.74 177.72L728.16 180.46L726.74 181.58L724.64 178.52L722.52 181.58L721.1 180.46L723.52 177.72L720 176.76L720.58 175.04L723.94 176.4L723.72 172.72ZM736.473 170.62H738.393V189.06H736.473V184.5H730.593V182.68H736.473V179.94H731.513V178.1H736.473V175.44H731.053V173.62H736.473V170.62ZM741.153 170.62H743.073V173.62H748.473V175.44H743.073V178.1H748.033V179.94H743.073V182.68H748.793V184.5H743.073V189.06H741.153V170.62ZM751.273 188.84L750.873 187.06C751.393 187.14 751.88 187.18 752.333 187.18C752.813 187.18 753.053 186.907 753.053 186.36V182.12C752.173 182.467 751.447 182.733 750.873 182.92L750.393 181.04C751.273 180.84 752.16 180.58 753.053 180.26V175.94H750.793V174.12H753.053V170.62H754.893V174.12H756.853V175.94H754.893V179.5C755.52 179.207 756.187 178.867 756.893 178.48V180.34C756.373 180.62 755.707 180.953 754.893 181.34V186.84C754.893 188.173 754.253 188.84 752.973 188.84H751.273ZM757.413 173.34H762.093V170.66H763.933V173.34H768.613V175.16H763.933V178.02H767.853V179.7C767.2 181.807 766.127 183.6 764.633 185.08C765.887 186.013 767.4 186.827 769.173 187.52L768.193 189.08C766.313 188.253 764.693 187.307 763.333 186.24C761.827 187.413 759.987 188.38 757.813 189.14L756.913 187.56C758.953 186.907 760.647 186.073 761.993 185.06C760.433 183.5 759.387 181.747 758.853 179.8H757.813V178.02H762.093V175.16H757.413V173.34ZM760.633 179.8C761.113 181.36 762 182.747 763.293 183.96C764.493 182.76 765.393 181.373 765.993 179.8H760.633ZM771.233 175.18H778.833V170.56H780.713V175.18H788.333V177H782.453C783.733 180.12 785.893 182.9 788.933 185.34L787.653 186.94C784.347 184.007 782.033 180.727 780.713 177.1V189.02H778.833V177.14C777.367 181.153 774.947 184.447 771.573 187.02L770.533 185.32C773.547 183.147 775.733 180.373 777.093 177H771.233V175.18ZM783.973 170.58C785.12 171.78 786 172.82 786.613 173.7L785.093 174.78C784.52 173.873 783.653 172.78 782.493 171.5L783.973 170.58ZM797.713 185.98C795.82 186.913 793.64 187.66 791.173 188.22L790.933 186.32C793.507 185.8 795.767 185.087 797.713 184.18V185.98ZM796.093 171.24C795.093 173.56 794.073 175.44 793.033 176.88C793.833 176.8 794.6 176.7 795.333 176.58L796.573 174.32L798.293 174.96C796.56 178.08 795.087 180.373 793.873 181.84C795.247 181.507 796.58 181.093 797.873 180.6V182.34C795.593 183.167 793.46 183.72 791.473 184L790.973 182.26C791.32 182.1 791.607 181.913 791.833 181.7C792.473 181.06 793.3 179.94 794.313 178.34L791.153 178.76L790.673 177C790.98 176.88 791.253 176.64 791.493 176.28C792.547 174.587 793.48 172.673 794.293 170.54L796.093 171.24ZM807.333 171.48V186.52H808.933V188.36H797.253V186.52H798.893V171.48H807.333ZM800.753 186.52H805.473V183.28H800.753V186.52ZM800.753 181.48H805.473V178.2H800.753V181.48ZM800.753 176.42H805.473V173.3H800.753V176.42Z" fill="#0067D1"/>
<path d="M360.5 127.604L350.44 121.936L350.561 133.482L360.5 127.604ZM302.51 129.209L351.511 128.698L351.49 126.698L302.49 127.209L302.51 129.209Z" fill="#979797"/>
<path d="M532.5 127.604L522.5 121.831V133.378L532.5 127.604ZM474.5 128.604H523.5V126.604H474.5V128.604Z" fill="#979797"/>
<path d="M937.5 95.6045L927.5 89.831L927.5 101.378L937.5 95.6045ZM861.5 96.6045L928.5 96.6045L928.5 94.6045L861.5 94.6045L861.5 96.6045Z" fill="#979797"/>
<path d="M747 95.9067L737 90.1332V101.68L747 95.9067ZM650 128.907H682.747V126.907H650V128.907ZM693.747 117.907V105.907H691.747V117.907H693.747ZM702.747 96.9067H738V94.9067H702.747V96.9067ZM693.747 105.907C693.747 100.936 697.776 96.9067 702.747 96.9067V94.9067C696.671 94.9067 691.747 99.8316 691.747 105.907H693.747ZM682.747 128.907C688.822 128.907 693.747 123.982 693.747 117.907H691.747C691.747 122.877 687.717 126.907 682.747 126.907V128.907Z" fill="#979797"/>
<path d="M749 232.907L739 238.68V227.133L749 232.907ZM650 126.907H682.747V128.907H650V126.907ZM693.747 137.907V222.907H691.747V137.907H693.747ZM702.747 231.907H740V233.907H702.747V231.907ZM693.747 222.907C693.747 227.877 697.776 231.907 702.747 231.907V233.907C696.671 233.907 691.747 228.982 691.747 222.907H693.747ZM682.747 126.907C688.822 126.907 693.747 131.832 693.747 137.907H691.747C691.747 132.936 687.717 128.907 682.747 128.907V126.907Z" fill="#979797"/>
<path d="M1180 129.907L1170 124.133V135.68L1180 129.907ZM914.5 233.907H1093.89V231.907H914.5V233.907ZM1104.89 222.907V139.907H1102.89V222.907H1104.89ZM1113.89 130.907H1171V128.907H1113.89V130.907ZM1104.89 139.907C1104.89 134.936 1108.92 130.907 1113.89 130.907V128.907C1107.81 128.907 1102.89 133.832 1102.89 139.907H1104.89ZM1093.89 233.907C1099.96 233.907 1104.89 228.982 1104.89 222.907H1102.89C1102.89 227.877 1098.86 231.907 1093.89 231.907V233.907Z" fill="#979797"/>
<path d="M1180 129.907L1170 135.68V124.133L1180 129.907ZM1018 94.9067H1094.11V96.9067H1018V94.9067ZM1105.11 105.907V119.907H1103.11V105.907H1105.11ZM1114.11 128.907H1171V130.907H1114.11V128.907ZM1105.11 119.907C1105.11 124.877 1109.14 128.907 1114.11 128.907V130.907C1108.04 130.907 1103.11 125.982 1103.11 119.907H1105.11ZM1094.11 94.9067C1100.19 94.9067 1105.11 99.8316 1105.11 105.907H1103.11C1103.11 100.936 1099.08 96.9067 1094.11 96.9067V94.9067Z" fill="#979797"/>
<rect x="719.5" y="59.3022" width="328" height="67" rx="12" fill="#0067D1" fill-opacity="0.1" stroke="#0067D1" stroke-width="3" stroke-linecap="round" stroke-linejoin="round" stroke-dasharray="10 10"/>
</svg>
