<svg width="91" height="92" viewBox="0 0 91 92" fill="none" xmlns="http://www.w3.org/2000/svg">
<path fill-rule="evenodd" clip-rule="evenodd" d="M17.6969 38.9284C20.3261 38.9616 22.9351 38.4715 25.3688 37.4873L28.8595 40.9005C28.9634 41.0083 29.0883 41.0942 29.2268 41.1529C29.3653 41.2115 29.5144 41.2418 29.665 41.2418C29.8157 41.2418 29.9647 41.2115 30.1032 41.1529C30.2417 41.0942 30.3667 41.0083 30.4706 40.9005C30.6814 40.6878 30.7995 40.4019 30.7995 40.1041C30.7995 39.8063 30.6814 39.5203 30.4706 39.3076L26.3277 35.1739C26.1499 34.987 25.9168 34.8606 25.6618 34.8129C25.4068 34.7652 25.143 34.7986 24.9085 34.9084C22.6215 35.8717 20.1404 36.3 17.6585 36.1599C15.1776 36.0821 12.7272 35.595 10.4086 34.7188C8.84156 33.8998 7.47807 32.7469 6.41666 31.3433C5.35525 29.9398 4.62243 28.3207 4.27115 26.603C3.58085 23.9664 3.58085 21.1995 4.27115 18.563C6.49599 20.3454 9.79489 23.1519 11.406 24.5171C12.0462 25.094 12.8255 25.4987 13.6692 25.6928C15.0501 25.6928 19.9601 26.2617 21.9931 26.3375C22.4265 26.3854 22.864 26.3854 23.2974 26.3375C23.7028 26.2843 24.0856 26.1217 24.4037 25.8675C24.7217 25.6132 24.9628 25.2772 25.1003 24.8964C25.2928 24.038 25.3574 23.1564 25.292 22.2796C25.292 20.0041 24.6783 16.4392 24.6783 15.2256C24.4789 14.3432 24.0414 13.5307 23.4124 12.8743C21.9931 11.3953 18.9628 8.32341 16.9681 6.38927C18.5019 5.47502 20.1364 4.73703 21.8397 4.18965C22.929 3.79192 24.1261 3.79192 25.2153 4.18965C27.3975 5.33089 29.3275 6.89094 30.8925 8.7785C32.4715 10.687 33.6691 12.8749 34.4216 15.2256C35.0334 16.9656 35.2175 18.8246 34.9586 20.6488C34.6713 22.5493 34.048 24.385 33.1173 26.072C32.9802 26.3274 32.9285 26.6193 32.9699 26.9055C33.0112 27.1918 33.1435 27.4577 33.3475 27.6649L37.8355 32.1399C38.0793 32.3649 38.4009 32.4891 38.7344 32.4869C39.0679 32.4847 39.3878 32.3563 39.6285 32.1281C39.8691 31.8998 40.0122 31.5891 40.0284 31.2598C40.0445 30.9305 39.9324 30.6076 39.7151 30.3575L35.8792 26.565C36.8353 24.8655 37.4966 23.0196 37.8355 21.1039C38.2407 18.817 38.1095 16.4685 37.4519 14.2396C36.6496 11.5021 35.3498 8.93184 33.616 6.65474C31.8082 4.38624 29.5663 2.49191 27.0182 1.07985C24.0645 -0.62675 18.349 1.23155 14.82 2.90022C14.063 3.28168 13.3326 3.71244 12.6335 4.18965C12.4499 4.29207 12.282 4.41976 12.1348 4.56889C11.7892 4.86317 11.5636 5.27166 11.5001 5.71822C11.4365 6.16479 11.5394 6.61895 11.7896 6.99606C12.1348 7.64077 15.2419 10.1817 20.1903 15.7187L20.4204 15.9841L20.8424 21.9383C18.8477 21.9383 16.0091 21.5211 14.4747 21.4453L14.1295 21.1798C12.2115 19.6628 7.83856 16.0221 5.76716 14.5051C5.35314 14.1668 4.90294 13.8743 4.42458 13.6328C4.18925 13.4897 3.92592 13.3974 3.65193 13.3622C3.37794 13.3269 3.09951 13.3495 2.83496 13.4283C2.57041 13.5071 2.32575 13.6404 2.11709 13.8195C1.90843 13.9986 1.7405 14.2193 1.62436 14.4672C-0.252931 18.5878 -0.512719 23.2515 0.895528 27.5511C1.45717 29.7314 2.50233 31.7609 3.95528 33.4925C5.40824 35.2242 7.23261 36.6146 9.29622 37.5631C11.9984 38.4838 14.8388 38.9454 17.6969 38.9284Z" fill="currentColor"/>
<path fill-rule="evenodd" clip-rule="evenodd" d="M80.0306 54.5908C77.219 53.5616 74.2445 53.0351 71.2464 53.0359C68.5335 52.9833 65.8402 53.5003 63.3443 54.5529L59.2015 50.3433C58.9864 50.1348 58.6972 50.0181 58.396 50.0181C58.0948 50.0181 57.8056 50.1348 57.5904 50.3433C57.3771 50.5624 57.258 50.8546 57.258 51.1587C57.258 51.4627 57.3771 51.755 57.5904 51.974L62.1936 57.018C62.3836 57.2113 62.6301 57.3408 62.8984 57.3884C63.1667 57.4361 63.4434 57.3993 63.6896 57.2835C66.0853 56.183 68.7279 55.7127 71.3614 55.9182C73.9977 55.9966 76.5974 56.5492 79.0333 57.5489C80.5786 58.405 81.911 59.5916 82.933 61.0219C83.9551 62.4523 84.641 64.0904 84.9406 65.8165C85.6581 68.4238 85.6581 71.1732 84.9406 73.7806C82.8309 71.9223 79.6087 69.04 78.036 67.7127C77.4182 67.1098 76.6509 66.6782 75.8111 66.4612C74.4302 66.4612 69.5202 65.7406 67.4871 65.6268H66.1829C65.775 65.6701 65.3871 65.8241 65.0622 66.0718C64.7372 66.3194 64.4879 66.651 64.3417 67.03C64.1312 67.8857 64.0536 68.7681 64.1115 69.6468C64.1115 71.8844 64.5718 75.4872 64.5335 76.7008C64.7086 77.5838 65.1344 78.3994 65.761 79.0521C67.1036 80.607 70.0572 83.7168 72.0519 85.7268C70.4836 86.5397 68.8223 87.1636 67.1036 87.5851C66.0149 87.9862 64.8166 87.9862 63.7279 87.5851C61.5754 86.4002 59.6739 84.8164 58.1275 82.9204C56.38 80.9669 55.0259 78.7014 54.1381 76.2457C53.5623 74.3776 53.4569 72.3987 53.8312 70.4812C54.2179 68.491 54.9721 66.5883 56.0561 64.8683C56.2246 64.599 56.2902 64.2789 56.241 63.966C56.1917 63.653 56.0309 63.3677 55.7876 63.1617L51.9516 59.3693C51.7072 59.1285 51.3761 58.9932 51.031 58.9932C50.6859 58.9932 50.3548 59.1285 50.1104 59.3693C49.8668 59.611 49.73 59.9383 49.73 60.2795C49.73 60.6207 49.8668 60.948 50.1104 61.1897L53.2942 64.2236C52.2621 65.9418 51.5112 67.8106 51.0694 69.7606C50.5586 72.1439 50.6244 74.6128 51.2612 76.9662C52.0797 79.6975 53.3782 82.265 55.0971 84.5511C56.7247 86.9593 58.8089 89.0328 61.2346 90.6569C64.1499 92.4394 69.9038 90.6569 73.3178 89.14C74.4302 88.609 75.2741 88.1539 75.6577 87.9264C75.8475 87.8452 76.0276 87.7434 76.1947 87.623C76.5366 87.3356 76.7632 86.9367 76.8336 86.4985C76.904 86.0603 76.8134 85.6117 76.5783 85.2337C76.5783 85.2337 71.4382 79.7726 68.5228 76.2457V75.9802L68.216 70.0261C70.2107 70.0261 73.0492 70.5191 74.5836 70.6329L74.8905 70.8983C76.8085 72.4911 81.0663 76.2457 83.0994 77.8385C83.5151 78.1677 83.9506 78.4717 84.4036 78.7487C84.6425 78.8942 84.9093 78.9893 85.1873 79.028C85.4652 79.0666 85.7482 79.0479 86.0184 78.9731C86.2887 78.8983 86.5403 78.7689 86.7575 78.5933C86.9748 78.4176 87.1528 78.1993 87.2805 77.9523C89.1561 73.8329 89.4292 69.1744 88.0477 64.8683C87.5636 62.6756 86.5934 60.6163 85.2071 58.8391C83.8207 57.0619 82.0527 55.6109 80.0306 54.5908Z" fill="currentColor"/>
<path fill-rule="evenodd" clip-rule="evenodd" d="M90.0814 25.2373C86.825 21.0983 83.163 17.2873 79.1489 13.86C75.3153 10.2974 71.1833 7.06227 66.7972 4.18925C66.0409 3.67883 65.1427 3.41374 64.2272 3.43077C63.7327 3.49067 63.28 3.73481 62.9613 4.11341C62.2687 5.08168 61.3165 5.83962 60.2119 6.30193C59.1072 6.76423 57.894 6.91255 56.7088 6.73019C54.1202 6.2038 51.7688 4.87535 49.9959 2.93775C49.6834 2.64984 49.2722 2.48975 48.8451 2.48975C48.418 2.48975 48.0068 2.64984 47.6943 2.93775C46.1397 4.27202 44.726 5.75867 43.4748 7.3749C43.1298 7.78575 42.8096 8.2163 42.5158 8.66433C42.4281 8.78312 42.3654 8.91809 42.3314 9.06127C42.2973 9.20444 42.2927 9.3529 42.3177 9.49788C42.3428 9.64285 42.397 9.78139 42.4771 9.90529C42.5573 10.0292 42.6617 10.1359 42.7843 10.2192C42.9742 10.3871 43.22 10.48 43.4748 10.48C43.7296 10.48 43.9754 10.3871 44.1653 10.2192C45.5394 8.4715 47.0669 6.84709 48.73 5.36491C50.7012 7.55205 53.2953 9.09878 56.1717 9.80207C57.7025 10.0994 59.2842 10.0122 60.772 9.54841C62.2599 9.0846 63.6061 8.25903 64.6875 7.14736C65.2175 7.39076 65.7301 7.66951 66.2219 7.98169C72.5387 12.9935 78.4393 18.4975 83.8671 24.4409C84.8645 25.5407 86.1687 26.6784 86.7057 27.4369C84.9843 30.2628 83.0071 32.9284 80.7984 35.401C79.9311 36.3997 78.9816 37.3257 77.9598 38.1695C77.5983 38.5106 77.1839 38.7923 76.7323 39.0039C74.9224 37.9577 73.2032 36.7654 71.5922 35.439C64.6875 30.1295 54.0236 20.9139 48.8451 16.4768C45.201 13.2532 45.8531 13.7462 45.6229 13.5945C45.3928 13.4428 42.8994 14.5047 44.2803 15.832L47.0038 18.4488C48.6917 20.0796 50.8398 22.2413 53.64 24.6684H53.3331L13.5929 65.4751C6.8033 72.4532 7.14853 78.559 9.75696 82.0101C10.8657 83.1761 12.2108 84.0978 13.7044 84.7149C15.1979 85.3319 16.8064 85.6305 18.4246 85.5912C20.0428 85.5518 21.6345 85.1753 23.0955 84.4864C24.5566 83.7974 25.8542 82.8115 26.9036 81.5929C31.0464 77.0799 37.1455 70.2156 43.3981 62.8583C52.3741 52.3912 61.6571 41.2793 66.1451 35.8561C68.4467 37.8282 70.5181 39.6486 72.1676 40.7863C73.4273 41.8694 74.9243 42.6483 76.5405 43.0618C78.9011 42.6321 81.0408 41.4137 82.6013 39.6106C85.7705 36.3778 88.5273 32.7735 90.8102 28.878C91.0144 28.2603 91.0546 27.601 90.927 26.9635C90.7994 26.326 90.5082 25.7316 90.0814 25.2373ZM44.8557 55.9181C37.1839 64.527 28.8983 73.3254 23.7198 78.6728C23.1218 79.4599 22.3596 80.1106 21.4849 80.5809C20.6102 81.0511 19.6435 81.3299 18.6502 81.3982C17.6569 81.4666 16.6604 81.3229 15.7283 80.977C14.7961 80.631 13.9501 80.091 13.2477 79.3933C11.4064 77.042 12.0969 73.2117 16.6616 68.3573L55.0209 26.6405L55.2127 26.3371C58.1664 29.0297 61.3119 31.8741 64.2272 34.4529C60.4296 38.7384 52.7961 47.1955 44.8557 55.9181Z" fill="currentColor"/>
</svg>
