<svg width="649" height="138" viewBox="0 0 649 138" fill="none" xmlns="http://www.w3.org/2000/svg">
<g clip-path="url(#clip0_496_4138)">
<rect x="0.5" y="0.604492" width="648" height="137" rx="11" fill="#F5F5F5" fill-opacity="0.63"/>
<path id="time" opacity="0.3" d="M298.624 16.3165H309.364V17.4325H304.252V19.0045C305.684 19.6925 307.172 20.5045 308.716 21.4405L308.032 22.4725C306.488 21.4725 305.228 20.7205 304.252 20.2165V26.8405H303.112V17.4325H298.624V16.3165ZM313.024 18.3685C312.528 19.1125 311.992 19.7685 311.416 20.3365L310.612 19.3765C311.612 18.4885 312.468 17.2565 313.18 15.6805L314.296 15.9205C314.136 16.3125 313.928 16.7565 313.672 17.2525H320.728V18.3685H316.78V21.1285H321.172V22.2445H316.78V26.8525H315.64V22.2445H310.84V21.1285H315.64V18.3685H313.024ZM327.136 17.0365H332.296V18.1885H328.192L327.94 20.6605H327.976C328.24 20.3885 328.544 20.1925 328.888 20.0725C329.192 19.9445 329.544 19.8805 329.944 19.8805C330.752 19.8805 331.408 20.1445 331.912 20.6725C332.424 21.2085 332.68 21.9325 332.68 22.8445C332.68 23.7245 332.352 24.4485 331.696 25.0165C331.088 25.5205 330.356 25.7725 329.5 25.7725C328.74 25.7725 328.08 25.5605 327.52 25.1365C326.912 24.6805 326.576 24.0525 326.512 23.2525H327.796C327.844 23.7405 328.032 24.1045 328.36 24.3445C328.648 24.5605 329.032 24.6685 329.512 24.6685C330.032 24.6685 330.476 24.5045 330.844 24.1765C331.204 23.8405 331.384 23.4005 331.384 22.8565C331.384 22.2565 331.228 21.7885 330.916 21.4525C330.604 21.1165 330.164 20.9485 329.596 20.9485C329.204 20.9485 328.872 21.0165 328.6 21.1525C328.296 21.2885 328.06 21.5165 327.892 21.8365H326.668L327.136 17.0365ZM334.823 19.4965C335.087 19.4965 335.299 19.5765 335.459 19.7365C335.627 19.8885 335.711 20.0925 335.711 20.3485C335.711 20.5885 335.623 20.7965 335.447 20.9725C335.271 21.1325 335.063 21.2125 334.823 21.2125C334.575 21.2125 334.367 21.1285 334.199 20.9605C334.031 20.7925 333.947 20.5885 333.947 20.3485C333.947 20.0925 334.031 19.8885 334.199 19.7365C334.359 19.5765 334.567 19.4965 334.823 19.4965ZM334.823 23.8885C335.087 23.8885 335.299 23.9685 335.459 24.1285C335.627 24.2805 335.711 24.4845 335.711 24.7405C335.711 24.9805 335.623 25.1885 335.447 25.3645C335.271 25.5245 335.063 25.6045 334.823 25.6045C334.575 25.6045 334.367 25.5205 334.199 25.3525C334.031 25.1845 333.947 24.9805 333.947 24.7405C333.947 24.4845 334.031 24.2805 334.199 24.1285C334.359 23.9685 334.567 23.8885 334.823 23.8885ZM340.193 16.8685C341.025 16.8685 341.701 17.1045 342.221 17.5765C342.741 18.0565 343.001 18.6725 343.001 19.4245C343.001 20.1525 342.721 20.8285 342.161 21.4525C341.825 21.7965 341.233 22.2565 340.385 22.8325C339.465 23.4405 338.913 23.9805 338.729 24.4525H343.013V25.6045H337.109C337.109 24.7485 337.393 24.0005 337.961 23.3605C338.257 23.0085 338.901 22.4885 339.893 21.8005C340.477 21.3845 340.885 21.0565 341.117 20.8165C341.509 20.3765 341.705 19.9085 341.705 19.4125C341.705 18.9325 341.573 18.5725 341.309 18.3325C341.045 18.0925 340.657 17.9725 340.145 17.9725C339.601 17.9725 339.193 18.1565 338.921 18.5245C338.641 18.8765 338.489 19.4005 338.465 20.0965H337.157C337.173 19.1365 337.449 18.3685 337.985 17.7925C338.529 17.1765 339.265 16.8685 340.193 16.8685ZM344.388 17.0365H350.136V18.0925L347.1 25.6045H345.72L348.816 18.2245H344.388V17.0365Z" fill="black"/>
<path id="text" opacity="0.6" d="M129.796 49.5805H131.332V64.1405H129.796V61.5325C128.377 62.1405 126.985 62.6418 125.62 63.0365L125.252 61.5325C126.788 61.2125 128.303 60.7058 129.796 60.0125V55.2925H125.572V53.8365H129.796V49.5805ZM135.108 63.9965C133.956 63.9965 133.38 63.4045 133.38 62.2205V49.5645H134.9V54.7325C136.244 54.2525 137.54 53.5965 138.788 52.7645L139.668 54.0125C137.983 54.9725 136.393 55.6925 134.9 56.1725V61.9965C134.9 62.3805 135.081 62.5725 135.444 62.5725H137.444C137.732 62.5725 137.961 62.4552 138.132 62.2205C138.271 61.9538 138.361 61.0792 138.404 59.5965L139.828 60.0765C139.732 61.9218 139.545 63.0365 139.268 63.4205C138.98 63.8045 138.457 63.9965 137.7 63.9965H135.108ZM148.852 51.6445V63.5805H147.428V62.6365H143.06V63.5805H141.636V51.6445H144.5V49.4205H145.988V51.6445H148.852ZM143.06 61.2765H144.5V57.6925H143.06V61.2765ZM145.988 61.2765H147.428V57.6925H145.988V61.2765ZM143.06 56.3485H144.5V53.0205H143.06V56.3485ZM145.988 53.0205V56.3485H147.428V53.0205H145.988ZM150.004 50.2205H155.38V51.3245C154.889 53.0205 154.372 54.5405 153.828 55.8845C154.937 57.4738 155.503 58.7752 155.524 59.7885C155.524 60.7058 155.321 61.3405 154.916 61.6925C154.489 62.0658 153.636 62.2525 152.356 62.2525L151.924 60.7165C152.564 60.7912 153.023 60.8285 153.3 60.8285C153.641 60.7965 153.865 60.7165 153.972 60.5885C154.057 60.4605 154.105 60.1938 154.116 59.7885C154.095 58.7965 153.497 57.4952 152.324 55.8845C152.836 54.7005 153.332 53.2658 153.812 51.5805H151.444V64.2685H150.004V50.2205ZM165.22 49.5165C165.22 50.7432 165.183 51.9378 165.108 53.1005C166.036 57.3458 168.329 60.5938 171.988 62.8445L170.98 64.1725C167.908 62.1245 165.764 59.3832 164.548 55.9485C163.492 59.2765 161.284 62.0285 157.924 64.2045L156.996 62.8445C161.316 60.2205 163.54 56.6152 163.668 52.0285L163.684 49.5165H165.22ZM176.308 53.9005H181.556V52.1085H183.012V53.9005H184.868V55.2605H183.012V59.8365C183.012 60.8925 182.511 61.4205 181.508 61.4205H179.668L179.348 60.0125C179.924 60.0765 180.479 60.1085 181.012 60.1085C181.375 60.1085 181.556 59.8898 181.556 59.4525V55.6605C180.34 57.6658 178.767 59.2392 176.836 60.3805L176.02 59.0365C177.876 58.0978 179.369 56.8392 180.5 55.2605H176.308V53.9005ZM187.124 50.0765V64.2685H185.668V63.6605H175.332V64.2685H173.876V50.0765H187.124ZM175.332 62.2845H185.668V51.4525H175.332V62.2845ZM189.7 50.0285H194.82V51.2285C194.276 52.7858 193.721 54.2365 193.156 55.5805C194.159 57.0418 194.697 58.3218 194.772 59.4205C194.772 60.1672 194.612 60.7005 194.292 61.0205C193.823 61.4258 193.017 61.6392 191.876 61.6605L191.364 60.1245C191.737 60.1778 192.009 60.2045 192.18 60.2045C192.628 60.1725 192.921 60.1032 193.06 59.9965C193.22 59.8792 193.3 59.6872 193.3 59.4205C193.3 58.3538 192.751 57.1485 191.652 55.8045C192.356 54.2685 192.921 52.8232 193.348 51.4685H191.172V64.2685H189.7V50.0285ZM199.508 49.5965C199.508 51.1752 199.444 52.6312 199.316 53.9645C200.212 57.6765 201.769 60.6258 203.988 62.8125L202.884 64.1245C201.113 62.1938 199.759 59.8738 198.82 57.1645C198.788 57.2285 198.772 57.2978 198.772 57.3725C198.185 60.1138 196.761 62.3805 194.5 64.1725L193.508 62.9725C195.417 61.3938 196.676 59.4525 197.284 57.1485C197.753 55.2178 197.999 52.7005 198.02 49.5965H199.508ZM224.852 50.9565C223.497 51.4258 221.977 51.7192 220.292 51.8365V54.4285H225.252V55.8845H223.7V64.2685H222.212V55.8845H220.292V57.5005C220.217 60.3058 219.593 62.5512 218.42 64.2365L217.348 63.0845C218.265 61.7298 218.756 59.8685 218.82 57.5005V50.5885C220.751 50.5565 222.516 50.2312 224.116 49.6125L224.852 50.9565ZM210.756 50.7485H213.62C213.385 50.2898 213.156 49.8952 212.932 49.5645L214.5 49.3085C214.735 49.7885 214.937 50.2685 215.108 50.7485H218.068V52.1565H210.756V50.7485ZM210.596 54.3805H212.292C212.079 53.8045 211.839 53.2818 211.572 52.8125L212.9 52.3165C213.188 52.9565 213.433 53.6445 213.636 54.3805H215.156C215.412 53.6978 215.636 53.0045 215.828 52.3005L217.188 52.7805C217.007 53.3245 216.788 53.8578 216.532 54.3805H218.164V55.7725H215.204V57.2125H217.892V58.5885H215.204V62.8605C215.204 63.8312 214.676 64.3165 213.62 64.3165H212.788L212.452 62.9085C212.697 62.9725 212.921 63.0045 213.124 63.0045C213.508 63.0045 213.7 62.8338 213.7 62.4925V58.5885H210.852V57.2125H213.7V55.7725H210.596V54.3805ZM213.188 59.5805C212.793 61.2232 212.255 62.6312 211.572 63.8045L210.324 63.0045C211.028 61.8632 211.524 60.6258 211.812 59.2925L213.188 59.5805ZM216.82 59.1805C217.257 60.2472 217.588 61.1752 217.812 61.9645L216.532 62.4445C216.276 61.4525 215.956 60.4765 215.572 59.5165L216.82 59.1805ZM229.7 49.5965C229.572 50.6418 229.444 51.5805 229.316 52.4125H231.828V53.2605C231.732 55.7458 231.3 57.9165 230.532 59.7725C231.023 60.2098 231.529 60.7112 232.052 61.2765L231.028 62.4605C230.676 62.0552 230.287 61.6338 229.86 61.1965C229.177 62.3912 228.351 63.4205 227.38 64.2845L226.404 63.0845C227.364 62.2632 228.159 61.2925 228.788 60.1725C228.201 59.6072 227.487 58.9672 226.644 58.2525C226.953 57.0685 227.268 55.6072 227.588 53.8685H226.532V52.4125H227.828C227.945 51.6125 228.079 50.6258 228.228 49.4525L229.7 49.5965ZM229.428 58.8125C229.983 57.3512 230.313 55.7032 230.42 53.8685H229.076C228.809 55.4152 228.527 56.7325 228.228 57.8205C228.441 57.9912 228.841 58.3218 229.428 58.8125ZM238.068 55.7405V54.6045H234.868V55.7405H238.068ZM234.868 53.3405H238.068V52.2045H234.868V53.3405ZM234.868 50.8605H238.068V49.5165H239.524V50.8605H240.82V52.2045H239.524V57.0365H237.236V58.2045H241.172V59.5805H238.516C239.124 60.5832 240.073 61.4898 241.364 62.3005L240.324 63.5965C238.948 62.3698 237.977 61.0312 237.412 59.5805H237.236V64.1725H235.716V59.5805H235.668C234.964 61.2018 233.86 62.5405 232.356 63.5965L231.508 62.2205C232.841 61.5165 233.849 60.6365 234.532 59.5805H231.796V58.2045H235.716V57.0365H233.428V52.2045H232.068V50.8605H233.428V49.5165H234.868V50.8605ZM244.228 56.1245C243.769 56.7325 243.311 57.2978 242.852 57.8205L242.404 56.3005C243.983 54.3165 245.14 52.0178 245.876 49.4045L247.236 50.0445C246.863 51.3032 246.356 52.5405 245.716 53.7565V64.2685H244.228V56.1245ZM246.836 52.0605H250.884V49.4685H252.372V52.0605H256.612V53.5165H253.46C254.207 56.0445 255.465 58.2738 257.236 60.2045L256.26 61.4365C254.404 59.1005 253.108 56.4818 252.372 53.5805V59.6285H254.66V61.0845H252.372V64.2525H250.884V61.0845H248.644V59.6285H250.884V53.5165C250.084 56.8125 248.74 59.5165 246.852 61.6285L246.068 60.3325C247.785 58.5298 249.028 56.2578 249.796 53.5165H246.836V52.0605ZM264.18 61.7885C262.665 62.5352 260.921 63.1325 258.948 63.5805L258.756 62.0605C260.815 61.6445 262.623 61.0738 264.18 60.3485V61.7885ZM262.884 49.9965C262.084 51.8525 261.268 53.3565 260.436 54.5085C261.076 54.4445 261.689 54.3645 262.276 54.2685L263.268 52.4605L264.644 52.9725C263.257 55.4685 262.079 57.3032 261.108 58.4765C262.207 58.2098 263.273 57.8792 264.308 57.4845V58.8765C262.484 59.5378 260.777 59.9805 259.188 60.2045L258.788 58.8125C259.065 58.6845 259.295 58.5352 259.476 58.3645C259.988 57.8525 260.649 56.9565 261.46 55.6765L258.932 56.0125L258.548 54.6045C258.793 54.5085 259.012 54.3165 259.204 54.0285C260.047 52.6738 260.793 51.1432 261.444 49.4365L262.884 49.9965ZM271.876 50.1885V62.2205H273.156V63.6925H263.812V62.2205H265.124V50.1885H271.876ZM266.612 62.2205H270.388V59.6285H266.612V62.2205ZM266.612 58.1885H270.388V55.5645H266.612V58.1885ZM266.612 54.1405H270.388V51.6445H266.612V54.1405ZM293.78 51.7885V64.0925H292.244V63.4525H287.444V64.1405H285.94V51.7885H288.404C288.596 51.0205 288.74 50.2365 288.836 49.4365L290.372 49.6445C290.266 50.3912 290.111 51.1058 289.908 51.7885H293.78ZM287.444 61.9645H292.244V58.2845H287.444V61.9645ZM287.444 56.7965H292.244V53.2445H287.444V56.7965ZM285.236 57.2125C284.959 57.3618 284.41 57.6285 283.588 58.0125V62.5405C283.588 63.5965 283.06 64.1245 282.004 64.1245H280.596L280.244 62.6525C280.724 62.7058 281.135 62.7325 281.476 62.7325C281.871 62.7325 282.068 62.5405 282.068 62.1565V58.6525C281.418 58.9085 280.788 59.1325 280.18 59.3245L279.812 57.7885C280.538 57.6178 281.29 57.3992 282.068 57.1325V53.7565H279.988V52.3005H282.068V49.5325H283.588V52.3005H285.22V53.7565H283.588V56.5085C283.962 56.3378 284.511 56.0605 285.236 55.6765V57.2125ZM302.644 54.7965C304.202 53.9005 305.674 52.8925 307.06 51.7725H296.82V50.3005H309.156V51.7725C307.684 53.0952 306.02 54.3592 304.164 55.5645V62.4445C304.164 63.5645 303.61 64.1245 302.5 64.1245C301.53 64.1245 300.682 64.0925 299.956 64.0285L299.54 62.5565C300.33 62.6525 301.178 62.7005 302.084 62.7005C302.458 62.7005 302.644 62.5245 302.644 62.1725V54.7965ZM325.78 51.7885V64.0925H324.244V63.4525H319.444V64.1405H317.94V51.7885H320.404C320.596 51.0205 320.74 50.2365 320.836 49.4365L322.372 49.6445C322.266 50.3912 322.111 51.1058 321.908 51.7885H325.78ZM319.444 61.9645H324.244V58.2845H319.444V61.9645ZM319.444 56.7965H324.244V53.2445H319.444V56.7965ZM317.236 57.2125C316.959 57.3618 316.41 57.6285 315.588 58.0125V62.5405C315.588 63.5965 315.06 64.1245 314.004 64.1245H312.596L312.244 62.6525C312.724 62.7058 313.135 62.7325 313.476 62.7325C313.871 62.7325 314.068 62.5405 314.068 62.1565V58.6525C313.418 58.9085 312.788 59.1325 312.18 59.3245L311.812 57.7885C312.538 57.6178 313.29 57.3992 314.068 57.1325V53.7565H311.988V52.3005H314.068V49.5325H315.588V52.3005H317.22V53.7565H315.588V56.5085C315.962 56.3378 316.511 56.0605 317.236 55.6765V57.2125ZM334.948 55.8205C334.575 56.2792 334.084 56.8338 333.476 57.4845L332.98 55.8685C334.655 54.0018 335.882 51.8418 336.66 49.3885L338.084 50.0605C337.647 51.3725 337.108 52.5618 336.468 53.6285V64.2525H334.948V55.8205ZM345.716 55.8525C346.495 57.7618 347.162 59.7618 347.716 61.8525L346.388 62.4605C345.78 60.1565 345.108 58.1032 344.372 56.3005L345.716 55.8525ZM340.068 52.7805C339.599 53.9325 339.039 55.0152 338.388 56.0285L337.076 55.2125C338.282 53.4312 339.13 51.5218 339.62 49.4845L341.044 49.7885C340.874 50.4285 340.724 50.9352 340.596 51.3085H347.316V52.3005C347.039 53.3352 346.724 54.2952 346.372 55.1805L344.916 54.7645C345.258 54.1565 345.535 53.4952 345.748 52.7805H340.068ZM339.86 64.1405L339.524 62.7005C340.292 62.7752 340.916 62.8125 341.396 62.8125C341.78 62.8125 341.972 62.6045 341.972 62.1885V53.9485H343.444V62.5725C343.444 63.6178 342.932 64.1405 341.908 64.1405H339.86ZM340.724 56.3965C340.17 58.6045 339.444 60.5352 338.548 62.1885L337.124 61.6765C337.978 60.1725 338.724 58.2845 339.364 56.0125L340.724 56.3965ZM351.46 60.3325C352.399 60.3325 352.868 60.9512 352.868 62.1885C352.868 63.7138 352.164 64.8552 350.756 65.6125L350.228 64.7645C351.156 64.1885 351.663 63.4578 351.748 62.5725C351.642 62.5938 351.546 62.6045 351.46 62.6045C351.14 62.6045 350.863 62.4978 350.628 62.2845C350.404 62.0605 350.292 61.7938 350.292 61.4845C350.292 61.1218 350.399 60.8392 350.612 60.6365C350.826 60.4338 351.108 60.3325 351.46 60.3325ZM369.54 49.3085C370.02 50.0765 370.495 50.9298 370.964 51.8685L369.908 52.3805H373.988C374.564 51.3672 375.05 50.3432 375.444 49.3085L377.076 49.8845C376.671 50.8338 376.234 51.6658 375.764 52.3805H379.044V53.8365H376.036V57.2445H379.668V58.7005H376.036V64.1725H374.5V58.7005H370.42C370.239 59.6178 369.978 60.4498 369.636 61.1965C368.964 62.5512 367.876 63.5965 366.372 64.3325L365.492 62.9245C366.911 62.1885 367.876 61.2392 368.388 60.0765C368.548 59.6712 368.692 59.2125 368.82 58.7005H365.316V57.2445H369.076C369.14 56.6365 369.188 55.9965 369.22 55.3245V53.8365H365.972V52.3805H369.508C369.092 51.5165 368.634 50.7165 368.132 49.9805L369.54 49.3085ZM374.5 57.2445V53.8365H370.74V55.3245C370.719 56.0605 370.682 56.7005 370.628 57.2445H374.5ZM382.132 54.6205L383.396 49.9485L384.916 50.2045L384.084 53.1645H386.452C386.74 52.0338 386.986 50.7858 387.188 49.4205L388.74 49.6125C388.559 50.8178 388.324 52.0018 388.036 53.1645H395.364V54.6205H387.652C387.62 54.7378 387.455 55.2392 387.156 56.1245H393.556V57.4045C393.14 58.7272 392.346 59.9112 391.172 60.9565C392.378 61.6285 393.844 62.2525 395.572 62.8285L394.788 64.2685C392.879 63.5752 391.252 62.8018 389.908 61.9485C388.65 62.8232 387.098 63.6232 385.252 64.3485L384.452 62.9085C386.042 62.3325 387.412 61.6978 388.564 61.0045C387.519 60.1725 386.74 59.2818 386.228 58.3325C385.076 60.6898 383.626 62.5778 381.876 63.9965L381.092 62.5885C383.3 60.6365 384.948 57.9805 386.036 54.6205H382.132ZM387.332 57.5005C387.866 58.4498 388.698 59.3245 389.828 60.1245C390.842 59.3032 391.572 58.4285 392.02 57.5005H387.332ZM391.428 49.4365C392.516 50.2578 393.444 51.1005 394.212 51.9645L393.124 53.0525C392.474 52.2098 391.567 51.3405 390.404 50.4445L391.428 49.4365ZM398.66 49.6445C399.748 50.4872 400.655 51.3192 401.38 52.1405L400.276 53.2285C399.679 52.4712 398.788 51.6125 397.604 50.6525L398.66 49.6445ZM407.844 63.9805C407.3 63.9805 406.346 63.9698 404.98 63.9485C403.967 63.9378 403.114 63.8472 402.42 63.6765C401.791 63.4845 401.231 63.1112 400.74 62.5565C400.516 62.2898 400.314 62.1565 400.132 62.1565C399.802 62.1565 399.226 62.8765 398.404 64.3165L397.284 63.2765C398.084 61.9752 398.804 61.1645 399.444 60.8445V56.3165H397.3V54.9085H400.868V60.9565C400.954 61.0205 401.034 61.1005 401.108 61.1965C401.482 61.6232 401.866 61.9432 402.26 62.1565C402.762 62.3912 403.471 62.5245 404.388 62.5565C405.604 62.5778 406.682 62.5885 407.62 62.5885C408.143 62.5885 408.938 62.5778 410.004 62.5565C410.708 62.5458 411.327 62.5192 411.86 62.4765L411.492 63.9805H407.844ZM402.132 55.6605H405.892C405.978 55.1058 406.031 54.4338 406.052 53.6445H402.676V52.2365H404.564C404.148 51.4685 403.7 50.7805 403.22 50.1725L404.58 49.5165C405.092 50.2525 405.551 51.0098 405.956 51.7885L405.06 52.2365H407.492C407.951 51.3192 408.351 50.3645 408.692 49.3725L410.132 49.8685C409.802 50.7325 409.434 51.5218 409.028 52.2365H410.852V53.6445H407.54C407.53 54.3378 407.487 55.0098 407.412 55.6605H411.396V57.1005H407.124C406.644 58.9672 405.252 60.5245 402.948 61.7725L401.988 60.5565C403.823 59.6605 405.002 58.5085 405.524 57.1005H402.132V55.6605ZM407.924 57.8525C409.172 58.6952 410.33 59.6338 411.396 60.6685L410.34 61.8205C409.274 60.6685 408.17 59.6818 407.028 58.8605L407.924 57.8525ZM419.972 54.7965C421.53 53.9005 423.002 52.8925 424.388 51.7725H414.148V50.3005H426.484V51.7725C425.012 53.0952 423.348 54.3592 421.492 55.5645V62.4445C421.492 63.5645 420.938 64.1245 419.828 64.1245C418.858 64.1245 418.01 64.0925 417.284 64.0285L416.868 62.5565C417.658 62.6525 418.506 62.7005 419.412 62.7005C419.786 62.7005 419.972 62.5245 419.972 62.1725V54.7965ZM429.236 55.9805H443.716V57.4845H429.236V55.9805ZM446.436 57.8525H451.764V56.5245H453.3V57.8525H458.484V59.2925H453.3V62.5405C453.3 63.6498 452.746 64.2045 451.636 64.2045H449.86L449.508 62.7485C450.074 62.8125 450.607 62.8445 451.108 62.8445C451.546 62.8445 451.764 62.6152 451.764 62.1565V59.2925H446.436V57.8525ZM450.036 60.9565C449.034 62.0978 447.828 63.0898 446.42 63.9325L445.428 62.6365C446.815 61.9112 447.999 61.0418 448.98 60.0285L450.036 60.9565ZM458.18 63.8685C457.146 62.8125 455.978 61.8152 454.676 60.8765L455.652 59.9325C456.644 60.5405 457.855 61.4845 459.284 62.7645L458.18 63.8685ZM451.668 49.6605L451.044 50.5885H457.092V51.7565C456.218 52.8125 455.194 53.7192 454.02 54.4765C455.663 55.1058 457.604 55.5592 459.844 55.8365L459.14 57.2285C456.548 56.8552 454.34 56.2258 452.516 55.3405C450.628 56.3005 448.394 56.9885 445.812 57.4045L445.14 56.0445C447.338 55.7458 449.295 55.2392 451.012 54.5245C450.244 54.0445 449.562 53.5218 448.964 52.9565C448.356 53.5005 447.716 53.9965 447.044 54.4445L446.068 53.2765C447.668 52.3165 449.044 51.0045 450.196 49.3405L451.668 49.6605ZM449.892 52.0125C450.618 52.6952 451.487 53.2925 452.5 53.8045C453.514 53.2498 454.399 52.6258 455.156 51.9325H449.972L449.892 52.0125ZM475.156 51.3085V64.0125H473.668V63.0205H471.204V64.0125H469.716V51.3085H475.156ZM471.204 61.5485H473.668V52.7805H471.204V61.5485ZM463.748 49.5325H465.284V52.2205H468.5C468.5 57.6605 468.42 61.0205 468.26 62.3005C468.1 63.5165 467.306 64.1245 465.876 64.1245C465.684 64.1245 465.268 64.0978 464.628 64.0445L464.244 62.6525C464.852 62.7058 465.316 62.7325 465.636 62.7325C466.308 62.7325 466.708 62.3592 466.836 61.6125C466.922 60.9192 466.98 58.2845 467.012 53.7085H465.284V54.1405C465.231 58.8125 464.202 62.2258 462.196 64.3805L460.964 63.2925C462.788 61.4045 463.716 58.3538 463.748 54.1405V53.7085H461.332V52.2205H463.748V49.5325ZM483.54 57.0045H480.26C480.154 57.3885 480.031 57.7938 479.892 58.2205H483.972V64.1245H482.628V63.2605H480.484V64.1565H479.14V59.9645C478.767 60.6578 478.324 61.2872 477.812 61.8525L477.012 60.5885C477.844 59.6818 478.463 58.4872 478.868 57.0045H477.764V55.7085H479.172L479.396 54.1885H477.38V52.8445H479.508C479.53 52.4925 479.551 51.9858 479.572 51.3245H477.86V50.0285H483.54V52.8445H484.34V54.1885H483.54V57.0045ZM480.948 51.3245C480.927 52.0072 480.906 52.5138 480.884 52.8445H482.164V51.3245H480.948ZM480.772 54.1885C480.719 54.6152 480.644 55.1218 480.548 55.7085H482.164V54.1885H480.772ZM480.484 61.9325H482.628V59.5965H480.484V61.9325ZM487.428 53.8685H484.692V52.4125H486.34C485.988 51.5912 485.594 50.8232 485.156 50.1085L486.436 49.5005C486.863 50.2045 487.295 51.0258 487.732 51.9645L486.82 52.4125H488.356C488.804 51.4418 489.188 50.4285 489.508 49.3725L490.932 49.8685C490.602 50.8498 490.26 51.6978 489.908 52.4125H491.444V53.8685H488.916V55.8205H491.108V57.2285H488.916V59.1965H491.796V60.6685H488.916V64.2365H487.428V60.6685H484.58V59.1965H487.428V57.2285H485.076V55.8205H487.428V53.8685ZM494.452 49.6445C495.434 50.4872 496.25 51.3352 496.9 52.1885L495.86 53.2285C495.284 52.4285 494.479 51.5592 493.444 50.6205L494.452 49.6445ZM503.828 63.9805C503.274 63.9805 502.282 63.9698 500.852 63.9485C499.796 63.9378 498.906 63.8472 498.18 63.6765C497.519 63.4845 496.943 63.1112 496.452 62.5565C496.228 62.2898 496.015 62.1565 495.812 62.1565C495.535 62.1565 495.028 62.8765 494.292 64.3165L493.22 63.3085C493.935 62.0498 494.57 61.2445 495.124 60.8925V56.3005H493.3V54.9085H496.564V60.9565C496.65 61.0098 496.735 61.0898 496.82 61.1965C497.226 61.6338 497.631 61.9538 498.036 62.1565C498.559 62.3912 499.295 62.5245 500.244 62.5565C501.503 62.5778 502.628 62.5885 503.62 62.5885C504.122 62.5885 504.916 62.5778 506.004 62.5565C506.708 62.5458 507.327 62.5192 507.86 62.4765L507.492 63.9805H503.828ZM497.94 50.5565H499.396C499.492 50.1832 499.572 49.7885 499.636 49.3725L501.14 49.5645C501.055 49.9592 500.954 50.2898 500.836 50.5565H502.612V54.1725C503.274 52.9138 503.732 51.3245 503.988 49.4045L505.38 49.6605C505.242 50.4498 505.092 51.1378 504.932 51.7245H507.764V53.1485H507.092C507.028 54.8552 506.783 56.3858 506.356 57.7405C506.858 58.6045 507.354 59.5805 507.844 60.6685L506.852 61.6605C506.49 60.7752 506.122 59.9645 505.748 59.2285C505.172 60.3698 504.436 61.3085 503.54 62.0445L502.772 60.8285C503.711 60.0818 504.431 59.0632 504.932 57.7725C504.495 57.0472 504.02 56.3592 503.508 55.7085L504.26 54.8285C504.687 55.2978 505.066 55.7725 505.396 56.2525C505.599 55.3245 505.727 54.2898 505.78 53.1485H504.452C504.058 54.1298 503.599 54.9512 503.076 55.6125L502.612 55.0365V55.1485H500.74L501.028 55.9005H503.14V57.1645H500.1L500.004 57.8685H502.708C502.708 59.7352 502.586 60.8818 502.34 61.3085C502.084 61.7245 501.647 61.9378 501.028 61.9485H500.132L499.764 60.7165H500.692C500.959 60.7058 501.135 60.5992 501.22 60.3965C501.295 60.1832 501.338 59.7352 501.348 59.0525H499.732L499.524 59.6765C499.204 60.4232 498.73 61.0952 498.1 61.6925L497.252 60.5885C497.722 60.1405 498.084 59.6232 498.34 59.0365C498.543 58.5352 498.698 57.9112 498.804 57.1645H497.444V55.9005H499.604L499.316 55.1485H497.94V50.5565ZM501.348 54.1405V53.3565H499.204V54.1405H501.348ZM499.204 52.3325H501.348V51.5645H499.204V52.3325ZM518.132 49.4845H519.588V50.4125H523.428V51.6445H519.588V52.4285H522.868V53.6285H519.588V54.4285H523.828V55.6925H513.94V54.4285H518.132V53.6285H515.06V52.4285H518.132V51.6445H514.388V50.4125H518.132V49.4845ZM516.516 59.7245V60.6205H521.268V59.7245H516.516ZM521.268 58.5725V57.6605H516.516V58.5725H521.268ZM516.516 61.7725V64.2525H515.076V56.4285H522.724V62.6685C522.724 63.6605 522.218 64.1565 521.204 64.1565H519.876L519.524 62.8125L520.772 62.8925C521.103 62.8925 521.268 62.7165 521.268 62.3645V61.7725H516.516ZM511.268 49.6125C512.324 50.4232 513.194 51.2072 513.876 51.9645L512.836 53.0205C512.186 52.2525 511.306 51.4632 510.196 50.6525L511.268 49.6125ZM509.092 54.2525H512.724V60.9405C512.991 60.6845 513.418 60.2525 514.004 59.6445L514.404 61.2445C513.487 62.1938 512.5 63.0418 511.444 63.7885L510.868 62.4125C511.135 62.1778 511.268 61.8952 511.268 61.5645V55.7085H509.092V54.2525Z" fill="black"/>
<rect width="648" height="56" transform="translate(0.5 81.6045)" fill="#F7F7F7"/>
<circle cx="28.5" cy="109.604" r="12.75" stroke="black" stroke-width="1.5"/>
<path d="M24.9749 112.211C25.2999 111.886 25.5577 111.5 25.7336 111.075C25.9095 110.651 26 110.196 26 109.736C26 109.276 25.9095 108.821 25.7336 108.397C25.5577 107.972 25.2999 107.586 24.9749 107.261L22.5 109.736L24.9749 112.211Z" fill="black"/>
<path d="M27.8035 115.04C28.4999 114.343 29.0524 113.516 29.4293 112.607C29.8062 111.697 30.0002 110.721 30.0002 109.736C30.0002 108.751 29.8062 107.776 29.4293 106.866C29.0524 105.956 28.4999 105.13 27.8035 104.433L26.2695 105.967C26.7645 106.462 27.1572 107.05 27.4251 107.696C27.693 108.343 27.8309 109.036 27.8309 109.736C27.8309 110.436 27.693 111.13 27.4251 111.776C27.1572 112.423 26.7645 113.011 26.2695 113.506L27.8035 115.04Z" fill="black"/>
<path d="M30.6318 117.868C31.6997 116.8 32.5467 115.532 33.1247 114.137C33.7026 112.742 34.0001 111.246 34.0001 109.736C34.0001 108.226 33.7026 106.731 33.1247 105.335C32.5467 103.94 31.6997 102.672 30.6318 101.604L29.2793 102.957C30.1696 103.847 30.8758 104.904 31.3576 106.067C31.8394 107.231 32.0874 108.477 32.0874 109.736C32.0874 110.995 31.8394 112.242 31.3576 113.405C30.8758 114.568 30.1696 115.625 29.2793 116.515L30.6318 117.868Z" fill="black"/>
<rect x="56.5" y="89.6045" width="496" height="40" rx="3" fill="white"/>
<circle cx="580.5" cy="109.604" r="12.75" stroke="black" stroke-width="1.5"/>
<circle cx="575.5" cy="105.604" r="2" fill="#010101"/>
<circle cx="585.5" cy="105.604" r="2" fill="#010101"/>
<path d="M587.711 111.854C587.639 112.549 587.466 113.231 587.198 113.879C586.834 114.759 586.3 115.558 585.627 116.231C584.953 116.904 584.154 117.438 583.274 117.803C582.395 118.167 581.452 118.354 580.5 118.354C579.548 118.354 578.605 118.167 577.726 117.803C576.846 117.438 576.047 116.904 575.373 116.231C574.7 115.558 574.166 114.759 573.802 113.879C573.534 113.231 573.361 112.549 573.289 111.854L580.5 111.854H587.711Z" stroke="black" stroke-width="1.5"/>
<circle cx="620.5" cy="109.604" r="12.75" stroke="black" stroke-width="1.5"/>
<rect x="619.722" y="102.604" width="1.55556" height="14" fill="#010101"/>
<rect x="627.5" y="108.827" width="1.55556" height="14" transform="rotate(90 627.5 108.827)" fill="#010101"/>
</g>
<defs>
<clipPath id="clip0_496_4138">
<rect x="0.5" y="0.604492" width="648" height="137" rx="11" fill="white"/>
</clipPath>
</defs>
</svg>
