<svg width="79" height="61" viewBox="0 0 79 61" fill="none" xmlns="http://www.w3.org/2000/svg">
<path d="M48.113 11.4443C47.4658 11.9284 46.7943 12.4193 46.0675 12.8994C45.2805 13.4306 44.4339 13.8678 43.5451 14.2019C42.9975 14.4076 42.4233 14.5339 41.8399 14.5768C41.5106 14.5954 41.1803 14.5769 40.8552 14.5215C40.5685 14.4776 40.2865 14.4075 40.0126 14.312C39.0707 14.0047 38.1829 13.5513 37.3818 12.9683C36.3502 12.2335 35.4089 11.3796 34.5772 10.4243C33.889 9.62891 33.2559 8.84422 32.6137 8.1345C32.2941 7.76714 31.9774 7.43918 31.6418 7.12254C31.2132 6.75342 30.8202 6.33212 30.4809 5.96623C29.7766 5.22153 29.1094 4.50872 28.404 3.88294C27.8108 3.27947 27.087 2.82017 26.2883 2.54039C26.0759 2.48002 25.8483 2.50591 25.6549 2.61243C25.5489 2.67929 25.4548 2.7633 25.3763 2.86102C25.267 2.98803 25.1576 3.11504 25.086 3.2838C24.7614 3.96724 24.6215 4.72381 24.6803 5.47813C24.7551 6.56155 24.9282 7.63594 25.1972 8.68808C25.4136 9.79605 25.6565 10.9268 25.8888 12.0484C25.9977 12.7781 25.7668 12.736 25.2997 12.2509C24.5197 11.4913 23.8628 10.6147 23.3528 9.65275C23.2186 9.3805 23.0783 9.09385 22.9676 8.80499C22.8569 8.51613 22.7789 8.20007 22.6917 7.8946C22.5081 7.26412 22.3755 6.61988 22.2953 5.96813C22.2092 5.25209 22.2134 4.52806 22.3078 3.81306C22.421 2.99122 22.712 2.20396 23.1607 1.50612C23.4273 1.06947 23.7843 0.694976 24.2078 0.407846C24.6959 0.0827792 25.2596 -0.111081 25.8445 -0.155056C26.752 -0.17979 27.6481 0.0519783 28.4298 0.51362C29.5787 1.18427 30.6223 2.02079 31.5269 2.99616C32.0152 3.49949 32.551 4.04384 33.0235 4.46911L33.3675 4.76531L33.8279 5.16177C34.1295 5.42152 34.4259 5.67672 34.717 5.92735C35.8395 6.96768 36.8431 8.00697 37.8379 8.92808C38.9272 9.92137 39.9871 10.8525 41.1196 11.1641L41.2264 11.2007L41.2687 11.2372C41.3092 11.2515 41.3515 11.26 41.3944 11.2624C41.5013 11.276 41.6094 11.2762 41.7163 11.2632C41.9989 11.2319 42.2755 11.1596 42.5372 11.0484C43.1923 10.7802 43.8178 10.4448 44.4037 10.0474C45.9573 9.03511 47.482 7.76748 49.1806 6.64038C49.8323 6.18341 50.5126 5.76874 51.2173 5.3989C51.997 4.98563 52.8478 4.72384 53.7249 4.62739C54.729 4.50821 55.7407 4.77625 56.554 5.37691C57.3586 5.98273 57.9125 6.86312 58.1104 7.85066C58.3388 9.18656 58.2231 10.5586 57.7741 11.8374C57.3785 13.0181 56.8316 14.1425 56.147 15.1826C55.9738 15.3837 55.8588 15.635 55.7121 15.8588C55.5654 16.0827 55.4029 16.293 55.235 16.4986C54.9689 16.8244 54.675 17.1263 54.3565 17.4011C54.1145 17.5775 53.8453 17.713 53.5595 17.8023C53.1608 17.9439 52.7268 17.952 52.3232 17.8252C52.1523 17.7909 51.9846 17.7421 51.822 17.6794C51.3794 17.4549 51.6109 16.576 52.1145 15.2954C52.6383 14.4838 53.1022 13.6668 53.5563 12.8505C53.9358 12.074 54.2532 11.2688 54.5056 10.4422C54.7346 9.8391 54.8102 9.18856 54.7258 8.54898C54.7124 8.41973 54.6601 8.29759 54.5758 8.19867C54.5543 8.19332 54.5367 8.17811 54.5282 8.15766C54.5282 8.15766 54.4859 8.1212 54.4647 8.10297C54.4435 8.08475 54.38 8.03006 54.343 7.99816C54.2608 7.9642 54.1741 7.94232 54.0856 7.93319C53.8933 7.93433 53.702 7.96193 53.5173 8.01523C52.935 8.18483 52.3773 8.42955 51.8582 8.74322C50.5861 9.58838 49.3616 10.5031 48.1902 11.4831L48.113 11.4443Z" fill="#CCDEFF" fill-opacity="0.61"/>
<path d="M40.8977 9.84868C40.9559 9.8988 41.0459 9.97627 41.3922 9.90585C41.8167 9.81659 42.2258 9.66595 42.6068 9.45865C43.6129 8.84288 44.5645 8.1423 45.4514 7.36454C46.4312 6.55851 47.4459 5.69044 48.5462 4.84074C49.1234 4.39664 49.7344 3.99835 50.3738 3.64954C51.0788 3.25733 51.8213 2.93649 52.5901 2.69178C53.5056 2.41133 54.4706 2.33085 55.4199 2.45579C55.6813 2.48689 55.9383 2.54744 56.1861 2.6363L56.6274 2.77668C56.7633 2.83272 56.8954 2.89728 57.0231 2.96998C57.5452 3.23975 57.9966 3.62843 58.3409 4.10468C58.5311 4.32936 58.6926 4.5768 58.8218 4.8413C58.8953 4.96765 58.9566 5.10069 59.0049 5.23865L59.1208 5.59646C59.2685 6.0459 59.3662 6.51024 59.4123 6.98108C59.4393 7.41686 59.4355 7.85401 59.401 8.28926C59.3579 8.69694 59.2922 9.10192 59.2043 9.50233C58.4101 12.2837 57.0088 14.8542 55.1013 17.0287C53.8516 18.5604 52.4889 19.9963 51.0245 21.3243C50.8908 21.4248 50.7805 21.553 50.701 21.7001C50.6779 21.7487 50.6666 21.8022 50.6681 21.856C50.6316 21.8984 50.6716 21.9697 50.6805 22.0235C50.7396 22.1651 50.8266 22.2934 50.9365 22.4005C51.1827 22.6686 51.4463 22.9203 51.7256 23.1538C52.9874 24.1231 54.3091 25.0119 55.6828 25.8148C57.1088 26.674 58.571 27.5552 59.9965 28.6076C61.5788 29.6758 62.9138 31.0705 63.9119 32.6979C64.4853 33.6919 64.753 34.8328 64.6817 35.9781C64.6709 36.2562 64.6335 36.5326 64.57 36.8036C64.5193 37.0984 64.4326 37.3859 64.312 37.6597C64.2634 37.8078 64.1993 37.9503 64.1209 38.085C64.0606 38.242 63.9838 38.3921 63.8919 38.5329C63.71 38.8273 63.4923 39.0981 63.2439 39.3389C62.992 39.5668 62.7186 39.7697 62.4274 39.9446C62.1507 40.1028 61.8556 40.2263 61.5487 40.3123C61.0073 40.4778 60.4465 40.5713 59.8808 40.5903C58.9126 40.6008 57.9467 40.4933 57.0045 40.2702C55.2823 39.8694 53.5989 39.3173 51.9739 38.6203C50.3899 37.966 48.8659 37.2528 47.3532 36.5585L45.114 35.552C44.7501 35.386 44.3861 35.2201 44.044 35.0822C43.9139 35.0161 43.7754 34.9681 43.6322 34.9396C43.5398 34.9034 43.4431 34.879 43.3446 34.867C42.9844 34.8525 42.6513 35.0574 42.5018 35.3855C42.4212 35.5424 42.3637 35.7102 42.331 35.8835C42.2735 36.18 42.2396 36.4806 42.2297 36.7825C42.2122 38.1881 42.3303 39.5922 42.5823 40.9753C42.7994 42.4249 43.0673 43.8905 43.2404 45.4127C43.334 46.2055 43.3671 47.0043 43.3395 47.8021C43.3427 48.2608 43.2921 48.7183 43.1887 49.1653C43.1233 49.4392 43.025 49.7043 42.896 49.9547C42.7764 50.2088 42.6225 50.4453 42.4384 50.6574C41.9394 51.1831 41.2727 51.5183 40.5531 51.6053C39.9262 51.6879 39.289 51.6411 38.6809 51.4677C37.609 51.1457 36.6158 50.6043 35.7643 49.8779C34.1978 48.5344 32.9139 46.8931 31.987 45.0494C31.5157 44.1604 31.1077 43.2394 30.766 42.2931C30.4656 41.3411 30.2341 40.3687 30.0735 39.3834C29.7355 37.4273 29.7337 35.4279 30.0679 33.4711C30.2896 32.2611 30.5914 31.7929 30.7291 31.847C30.8669 31.9011 30.9783 32.5316 31.1405 33.5099C31.4069 34.8305 31.7654 36.1308 32.2134 37.4014C32.4737 38.1693 32.8014 38.9768 33.1707 39.8109C33.3553 40.2279 33.5407 40.6548 33.77 41.0735C33.9994 41.4921 34.1476 41.9515 34.3587 42.3913C35.0498 43.9505 36.0076 45.3772 37.189 46.6072C37.6886 47.1332 38.2701 47.5747 38.9109 47.9148C39.1655 48.0467 39.4377 48.1414 39.7192 48.1961C39.8333 48.2188 39.9486 48.235 40.0645 48.2446L40.1599 48.2623C40.1599 48.2623 40.1385 48.3728 40.234 47.9943C40.2925 47.188 40.247 46.3775 40.0986 45.5828C39.8466 43.7991 39.4237 41.9142 39.1252 39.9062C38.9527 38.8331 38.8733 37.7472 38.8879 36.6605C38.8922 36.3525 38.9138 36.045 38.9528 35.7395L38.9844 35.4995C38.9945 35.406 39.0124 35.3135 39.0381 35.2231L39.2055 34.547C39.4539 33.6708 39.9421 32.8815 40.6151 32.2679C41.2682 31.6669 42.1043 31.3028 42.9892 31.234C43.0985 31.2175 43.209 31.2109 43.3195 31.2142L43.6535 31.2438L44.3275 31.3173L44.9324 31.4603L45.342 31.5733C45.878 31.7215 46.37 31.8779 46.8582 32.0495L48.2128 32.6169C50.0147 33.4035 51.743 34.2005 53.4738 34.8983C55.0936 35.6357 56.7751 36.2293 58.4989 36.6724C58.9363 36.7706 59.3815 36.8302 59.8294 36.8504C60.1311 36.8427 60.4318 36.812 60.7288 36.7585C60.9163 36.7385 61.0879 36.6436 61.2043 36.4952C61.2263 36.4279 61.2546 36.3627 61.2888 36.3007L61.344 36.044C61.3837 35.8756 61.4024 35.7029 61.3997 35.5298C61.328 34.7087 60.9787 33.9366 60.4093 33.3407C59.7056 32.5502 58.9117 31.845 58.0438 31.2393C56.2083 29.9353 54.1323 28.7928 52.0407 27.5079C50.9177 26.8651 49.8572 26.1186 48.8733 25.2782C48.2095 24.7092 47.6755 24.0043 47.3077 23.2112C46.9152 22.303 46.9263 21.2709 47.3384 20.3714C47.4647 20.1391 47.6054 19.9008 47.7521 19.6769C47.9042 19.4735 48.0702 19.2807 48.2488 19.1001L48.4949 18.8143L48.6589 18.6238L48.996 18.2965L50.3693 16.9907L51.6851 15.6445C52.0906 15.1735 52.4917 14.7078 52.8972 14.2368C53.3028 13.7658 53.6418 13.2651 54.0163 12.7766C54.3909 12.2881 54.6989 11.7699 54.9568 11.2456C55.5382 10.2887 55.8947 9.21223 55.9995 8.09747C56.0349 7.84227 55.9832 7.6134 55.9996 7.36951C55.9688 7.15612 55.9183 6.94604 55.8488 6.74196C55.8149 6.59226 55.7522 6.4506 55.6641 6.32491C55.589 6.21886 55.4891 6.13282 55.3731 6.07428C55.3233 6.04176 55.2679 6.01901 55.2096 6.00725C55.1239 5.96957 55.0314 5.94953 54.9378 5.9483C54.7389 5.9226 54.5375 5.92265 54.3386 5.94846C53.8507 6.02141 53.3785 6.17549 52.9415 6.40434C52.4249 6.65735 51.9302 6.95266 51.4624 7.28727C50.9617 7.61186 50.4594 7.98114 49.9578 8.36027L46.8746 10.7743C46.2037 11.3003 45.5065 11.792 44.7859 12.2474C43.9988 12.7791 43.1335 13.1845 42.2213 13.4491C41.9603 13.5194 41.6939 13.5674 41.4248 13.5927C41.1374 13.6277 40.8471 13.6311 40.5589 13.6029C40.2589 13.5768 39.9625 13.5193 39.6746 13.4312C39.3946 13.3315 39.1224 13.2111 38.8603 13.071C38.6392 12.9427 38.4281 12.7979 38.2288 12.6378L37.9218 12.3735L37.6519 12.1411L36.8244 11.2719C34.6033 8.98146 32.3496 6.71824 29.9909 4.64112C29.1232 3.86202 28.2075 3.13813 27.2491 2.47374C26.9217 2.20936 26.581 1.96207 26.2281 1.73286C25.9548 1.5508 25.6629 1.39829 25.3573 1.2779C25.0526 1.13402 24.697 1.14763 24.4043 1.31438C24.161 1.54214 24.0188 1.85758 24.0091 2.19067C23.9646 2.49529 23.9461 2.80315 23.954 3.11091C23.9812 3.55511 24.0308 3.99766 24.1025 4.43688C24.5887 6.77185 25.2023 9.07849 25.9404 11.3464C26.1035 11.9729 26.2303 12.6083 26.3202 13.2494C26.3843 13.5933 26.43 13.9403 26.4572 14.289C26.4917 14.7133 26.4854 15.14 26.4384 15.5631C26.3579 16.4219 25.9624 17.2205 25.3281 17.805C25.1544 17.9319 24.9912 18.0679 24.8167 18.1849L24.2441 18.4753C23.8543 18.6227 23.4513 18.7324 23.0405 18.8028C22.7606 18.859 22.4765 18.8918 22.1911 18.9009C21.9108 18.9267 21.6525 18.9163 21.3904 18.921L20.6867 18.9141C20.4784 18.9099 20.2617 18.926 20.0488 18.9271C19.1773 18.9682 18.3096 19.0677 17.4514 19.2249C15.7354 19.5489 14.0598 20.0592 12.4545 20.7468C12.0663 20.9194 11.6886 21.1011 11.3269 21.2965L10.8187 21.5869C10.7102 21.6594 10.5729 21.7439 10.5031 21.8036C10.1463 22.0133 9.86906 22.3352 9.71471 22.7192C9.66868 22.9139 9.69095 23.1185 9.77778 23.2988C9.86867 23.4754 9.9931 23.6327 10.1441 23.7617C10.2961 23.876 10.4612 23.9717 10.6358 24.0469C10.7046 24.1061 10.8137 24.1079 10.9 24.1361L11.0476 24.1895L11.3353 24.2621C12.6866 24.6515 14.2655 24.8407 15.8834 25.22C17.2089 25.4944 18.5179 25.8431 19.8042 26.2644C20.2904 26.4472 20.767 26.6546 21.2322 26.8858C21.6551 27.1117 22.0228 27.3269 22.3549 27.53C23.3373 28.084 24.1112 28.9446 24.5582 29.9802C24.7125 30.3062 24.8326 30.6474 24.9165 30.9983C24.9495 31.4415 24.3618 31.3963 23.3291 31.1614C22.2964 30.9265 20.7283 30.6176 18.642 30.3326C17.1103 30.0459 15.5123 29.868 13.8228 29.6574C12.9792 29.5668 12.1152 29.4035 11.1809 29.2257L10.4858 29.0696L9.75155 28.852L9.38213 28.7459L8.85012 28.5182C8.50128 28.356 8.12054 28.2309 7.78919 28.0378L6.81646 27.4122C6.53068 27.1661 6.2449 26.92 5.98191 26.6475C5.72179 26.3808 5.48781 26.0898 5.28319 25.7785C5.09212 25.464 4.92523 25.1355 4.78395 24.7957C4.22409 23.4051 4.33319 21.8345 5.07995 20.5346C5.47094 19.8602 5.98397 19.2644 6.59288 18.7776C6.89915 18.5092 7.22314 18.2617 7.56265 18.0367C7.90031 17.7837 8.19828 17.6624 8.53359 17.4443C9.44363 16.9519 10.3932 16.5365 11.3725 16.2023C13.2005 15.5803 15.0847 15.1378 16.9984 14.8811C17.9781 14.7487 18.9648 14.6751 19.9532 14.6606C20.2206 14.6604 20.4782 14.661 20.7463 14.6707L21.4469 14.7026L21.9241 14.7264L22.3241 14.7114C22.3795 14.6934 22.4381 14.6873 22.4961 14.6936L22.4703 14.3489C22.2865 13.6307 22.0568 12.925 21.7828 12.2362L20.9423 9.73375C20.481 8.39186 20.0947 7.02537 19.785 5.64061L19.6787 5.07906L19.6233 4.80093L19.5726 4.45312L19.475 3.74236L19.4015 2.75744C19.3476 2.10284 19.4203 1.48336 19.427 0.844045L19.5828 -0.0539995C19.598 -0.201598 19.6252 -0.347712 19.6641 -0.490893L19.8134 -0.878402C20.1245 -1.90898 20.7971 -2.79266 21.7075 -3.36705C22.6297 -3.93146 23.7212 -4.15318 24.7905 -3.99333C25.9778 -3.81741 27.1155 -3.39641 28.1313 -2.75709C28.4105 -2.59966 28.6843 -2.44678 28.9347 -2.27728L29.3151 -2.02341L29.6388 -1.79998C29.9459 -1.59979 30.2333 -1.37087 30.4971 -1.11628C31.0263 -0.660578 31.4871 -0.125491 31.9981 0.35138C32.5091 0.828249 33.0156 1.31041 33.5174 1.79786C34.4849 2.75073 35.4144 3.72623 36.3288 4.6979C37.2432 5.66958 38.1393 6.66242 39.0203 7.65145L40.3395 9.13763L40.6478 9.48602C40.6979 9.52028 40.7441 9.56002 40.7854 9.60451L40.9283 9.72755L40.8977 9.84868Z" fill="#CCDEFF" fill-opacity="0.61"/>
<path d="M29.3649 21.6687C29.4607 20.8296 30.1885 20.2306 30.6944 19.6431C31.3295 19.1792 32.0734 18.8866 32.8544 18.7936C33.2308 18.7558 33.6106 18.7725 33.9822 18.8431L34.3932 18.9758C35.4239 19.4874 36.2944 20.272 36.9098 21.2442C37.4777 22.0622 37.9052 22.9692 38.1748 23.9279C38.4852 24.7376 38.5545 25.6199 38.3744 26.4682C38.2752 26.82 38.0856 27.1398 37.8246 27.3957C37.5615 27.6464 37.2324 27.8169 36.8758 27.8874C36.3214 27.9906 35.7484 27.9005 35.2523 27.6323C34.9595 27.4907 35.1262 27.1366 35.4262 26.7774C35.7058 26.4576 36.002 26.1528 36.3138 25.8644C36.3138 25.8644 36.3138 25.8644 36.3503 25.822C36.3832 25.8938 36.4232 25.9621 36.4695 26.0261C36.4515 26.0012 36.428 25.9809 36.4007 25.9668C36.3464 25.9291 36.2856 25.9018 36.2213 25.8861L36.1403 25.8625L36.1086 25.8351L36.0702 25.7191C36.0189 25.6289 36.0646 25.5116 36.0339 25.3653C35.995 25.027 35.9286 24.6925 35.8354 24.365L35.6761 23.8222L35.576 23.5425C35.5602 23.4644 35.5799 23.4629 35.5717 23.419C35.5666 23.2383 35.4956 23.0657 35.3721 22.9337C35.254 22.8042 35.1208 22.6895 34.9751 22.592L34.8905 22.519C34.4447 22.1795 33.8108 22.2508 33.4516 22.6809C33.22 22.9524 33.1282 23.3163 33.2032 23.6651C33.3458 24.2693 33.8184 24.7406 34.423 24.8814C35.1001 24.9517 35.7838 24.919 36.4511 24.7845C36.6099 24.7444 36.7724 24.7207 36.9361 24.7136C37.0669 24.7199 37.1966 24.7418 37.3222 24.7789C37.4275 24.8324 37.5183 24.9106 37.5868 25.0067C37.7681 25.2598 37.8973 25.5465 37.9667 25.8499C38.0201 26.0341 38.0826 26.2077 38.1253 26.3828C38.1987 26.6677 38.1705 26.9693 38.0454 27.2356C37.915 27.5318 37.6992 27.7824 37.4256 27.9553C36.5337 28.3893 35.5375 28.5632 34.5513 28.4571C34.4271 28.4515 34.2968 28.4315 34.1719 28.4161L33.6252 28.3232C33.2497 28.2027 32.8909 28.1056 32.4973 27.9419C31.8465 27.591 31.2395 27.1642 30.689 26.6705C30.4985 26.5064 30.3255 26.3114 30.1722 26.1148L29.7614 25.5215C29.5515 25.1046 29.3626 24.6774 29.1954 24.2416C28.9707 23.3855 29.0102 22.4814 29.3089 21.6481L29.3649 21.6687Z" fill="#CCDEFF" fill-opacity="0.61"/>
</svg>
