<svg width="481" height="555" viewBox="0 0 481 555" fill="none" xmlns="http://www.w3.org/2000/svg">
<path d="M274.589 412.788C274.391 405.405 274.27 397.805 274.521 389.849C274.708 381.175 275.911 372.552 278.106 364.157C279.459 358.985 281.546 354.034 284.303 349.455C285.901 346.9 287.781 344.533 289.909 342.399C291.749 340.491 293.76 338.756 295.917 337.216C303.178 331.808 311.244 327.575 319.82 324.672C330.745 320.85 342.082 318.33 353.597 317.163C363.162 316.222 372.357 315.638 381.041 314.588C385.468 314.141 389.585 313.508 393.718 312.674C398.734 311.422 403.95 310.712 408.47 310.11C417.742 308.783 426.58 307.563 434.97 305.601C442.603 304.357 449.848 301.379 456.148 296.895C457.719 295.628 458.726 293.793 458.952 291.788C459.012 290.644 458.881 289.499 458.566 288.398C458.195 286.912 457.824 285.426 456.943 284.002C453.555 277.974 448.647 272.94 442.708 269.4C434.229 264.244 425.299 259.868 416.029 256.326C406.619 252.097 396.901 247.945 387.306 243.762C381.286 240.726 382.819 239.225 388.902 238.299C398.685 236.485 408.69 236.206 418.559 237.474C421.298 237.909 424.177 238.374 426.916 239.072C429.656 239.769 432.426 240.854 435.165 241.815C440.838 243.77 446.345 246.179 451.631 249.019C457.429 252.153 462.81 256.003 467.647 260.479C473.183 265.658 477.522 271.983 480.363 279.011C482.215 283.304 483.127 287.943 483.036 292.618C482.886 297.975 481.36 303.204 478.603 307.8C474.001 314.703 467.545 320.167 459.977 323.565C448.912 328.601 437.165 331.976 425.116 333.582C418.785 334.57 411.896 335.697 406.231 336.98L402.206 337.984L396.819 339.329C393.29 340.21 389.822 341.075 386.417 341.925C372.733 344.814 359.684 346.822 347.563 349.386C334.405 352.276 321.867 355.274 313.568 362.081L312.732 362.684L312.236 362.808C311.916 363.034 311.629 363.305 311.385 363.612C310.72 364.339 310.148 365.144 309.681 366.011C308.424 368.285 307.505 370.73 306.954 373.269C305.5 379.572 304.703 386.009 304.579 392.477C303.937 409.41 305.355 427.474 304.806 446.094C304.778 453.367 304.284 460.631 303.327 467.84C302.299 475.838 299.764 483.568 295.857 490.621C291.451 498.742 284.114 504.878 275.342 507.779C266.577 510.588 257.086 510.077 248.674 506.345C237.5 501.003 227.872 492.902 220.698 482.807C213.974 473.627 208.468 463.615 204.318 453.02C203.73 450.667 202.462 448.484 201.565 446.209C200.668 443.933 199.957 441.611 199.308 439.274C198.281 435.57 197.578 431.784 197.207 427.958C197.167 425.222 197.576 422.498 198.418 419.894C199.463 416.172 201.692 412.891 204.767 410.548C205.925 409.454 207.173 408.46 208.499 407.578C212.509 405.459 217.846 411.822 224.745 422.335C228.039 430.524 231.689 438.296 235.385 445.99C239.178 452.917 243.512 459.533 248.349 465.776C251.642 470.666 256.097 474.662 261.315 477.405C262.35 477.987 263.537 478.241 264.72 478.134C264.873 478.002 265.08 477.95 265.277 477.995C265.277 477.995 265.773 477.871 266.02 477.809C266.268 477.748 267.011 477.562 267.444 477.454C268.131 477.02 268.752 476.488 269.287 475.876C270.293 474.435 271.095 472.862 271.672 471.202C273.478 465.963 274.594 460.51 274.991 454.982C275.394 441.032 275.027 427.07 273.893 413.16L274.589 412.788Z" fill="#CCDEFF" fill-opacity="0.61"/>
<path d="M324.555 367.364C323.874 367.534 322.821 367.797 321.52 370.753C319.947 374.391 318.913 378.239 318.451 382.175C317.739 392.93 317.947 403.727 319.073 414.447C319.92 426.01 321.045 438.161 321.582 450.853C321.851 457.503 321.601 464.163 320.831 470.774C320.039 478.104 318.517 485.336 316.288 492.364C313.552 500.675 309.062 508.301 303.123 514.725C301.512 516.512 299.704 518.11 297.734 519.49L294.359 522.043C293.224 522.761 292.046 523.407 290.829 523.977C286.063 526.45 280.781 527.768 275.411 527.825C272.732 528.059 270.033 527.959 267.378 527.528C266.048 527.41 264.731 527.166 263.447 526.799L260.166 525.776C256.033 524.507 252.053 522.787 248.296 520.648C244.902 518.551 241.66 516.217 238.594 513.663C235.779 511.191 233.104 508.565 230.579 505.797C214.014 485.2 202.223 461.185 196.059 435.481C191.22 418.077 187.693 400.334 185.508 382.402C185.463 380.875 185.089 379.375 184.41 378.006C184.169 377.577 183.83 377.211 183.42 376.938C183.296 376.442 182.553 376.365 182.105 376.148C180.736 375.841 179.32 375.814 177.941 376.069C174.642 376.492 171.374 377.132 168.158 377.984C154.269 382.287 140.666 387.462 127.429 393.478C113.496 399.586 99.2069 405.85 83.8349 410.936C67.5183 417.108 50.0687 419.714 32.6607 418.578C22.219 417.614 12.2931 413.594 4.12308 407.02C2.10498 405.473 0.239731 403.736 -1.44711 401.833C-3.38009 399.899 -5.06868 397.736 -6.47509 395.392C-7.32368 394.248 -8.04953 393.018 -8.64064 391.723C-9.49429 390.445 -10.2098 389.08 -10.7751 387.651C-12.0126 384.741 -12.8849 381.689 -13.3719 378.564C-13.7439 375.483 -13.8153 372.373 -13.5851 369.277C-13.3056 366.378 -12.6703 363.524 -11.6934 360.78C-10.073 355.868 -7.81262 351.19 -4.97048 346.868C0.0580985 339.588 5.95488 332.947 12.5896 327.093C24.6641 316.356 37.6633 306.707 51.4358 298.257C64.6729 289.888 78.0337 282.278 91.1932 274.652L110.515 263.252C113.673 261.411 116.831 259.571 119.664 257.745C120.844 257.123 121.932 256.342 122.9 255.425C123.658 254.926 124.35 254.333 124.959 253.661C126.967 251.05 127.195 247.483 125.536 244.638C124.789 243.209 123.841 241.894 122.72 240.736C120.811 238.743 118.747 236.905 116.546 235.239C106.149 227.694 95.0488 221.169 83.3993 215.754C71.4369 209.729 59.0874 203.997 46.8157 197.259C40.406 193.776 34.2707 189.81 28.463 185.396C25.0227 183 21.8756 180.209 19.0863 177.08C17.3866 175.147 15.927 173.016 14.7394 170.732C13.4737 168.5 12.5215 166.104 11.9096 163.611C10.6187 157.115 11.634 150.371 14.7804 144.543C17.4703 139.429 21.1807 134.921 25.6822 131.298C33.7391 124.998 43.0178 120.442 52.9292 117.919C71.2169 113.317 90.2367 112.393 108.884 115.201C118.003 116.373 127.028 118.187 135.892 120.629C144.581 123.408 153.058 126.81 161.257 130.808C177.636 138.604 192.566 149.137 205.405 161.952C213.265 169.988 215.167 174.71 214.036 175.453C212.906 176.195 207.614 173.701 199.458 169.751C188.198 164.774 176.604 160.59 164.76 157.231C157.657 155.123 149.903 153.309 141.731 151.665C137.645 150.844 133.482 149.975 129.148 149.478C124.814 148.981 120.604 147.664 116.209 146.919C100.929 143.853 85.2308 143.475 69.8208 145.802C63.2609 146.756 56.8987 148.766 50.9814 151.754C48.654 152.959 46.5111 154.49 44.6181 156.303C43.8473 157.035 43.1184 157.809 42.4347 158.623L41.7999 159.242C41.7999 159.242 41.0882 158.499 43.4089 161.209C49.1169 165.898 55.4049 169.833 62.1177 172.918C76.7572 180.446 93.0533 187.231 109.612 195.596C118.529 199.969 127.051 205.104 135.083 210.945C137.359 212.601 139.539 214.385 141.613 216.287L143.238 217.789C143.882 218.357 144.478 218.979 145.017 219.648L149.179 224.463C154.407 230.938 157.722 238.745 158.751 247.003C159.791 255.047 158.098 263.206 153.944 270.172C153.49 271.074 152.956 271.934 152.349 272.741L150.367 275.077L146.263 279.719L142.005 283.479L139.001 285.939C135.069 289.157 131.306 292.003 127.451 294.742L116.072 301.857C100.698 311.154 85.6345 319.847 71.298 329.082C57.2516 337.28 43.9526 346.696 31.5544 357.222C28.5139 359.967 25.721 362.976 23.2081 366.211C21.6738 368.503 20.3172 370.908 19.15 373.407C18.3095 374.912 18.1134 376.693 18.6064 378.344C18.9929 378.864 19.3296 379.418 19.6118 380.001L21.2364 381.766C22.2837 382.951 23.4739 384.002 24.7797 384.894C31.2846 388.691 38.8893 390.157 46.3394 389.051C55.9495 387.969 65.3998 385.765 74.497 382.483C93.9094 375.665 113.385 366.2 134.005 357.369C144.725 352.379 155.889 348.404 167.35 345.495C175.097 343.542 183.173 343.276 191.032 344.715C199.88 346.576 207.523 352.103 212.061 359.922C213.129 362.09 214.165 364.396 215.062 366.672C215.777 368.881 216.34 371.136 216.746 373.421L217.581 376.765L218.137 378.994L218.801 383.235L221.302 400.371L224.407 417.29C225.782 422.801 227.142 428.25 228.517 433.76C229.893 439.271 231.841 444.442 233.511 449.813C235.18 455.185 237.423 460.216 239.975 464.907C244.049 474.293 250.201 482.631 257.967 489.292C259.684 490.903 261.665 491.724 263.398 493.133C265.153 494.029 266.987 494.76 268.877 495.318C270.172 495.855 271.56 496.134 272.963 496.14C274.15 496.138 275.319 495.847 276.368 495.29C276.873 495.09 277.336 494.796 277.731 494.423C278.464 493.982 279.101 493.398 279.604 492.706C280.845 491.357 281.907 489.854 282.763 488.234C284.792 484.209 286.133 479.872 286.731 475.404C287.567 470.215 287.973 464.965 287.944 459.709C288.163 454.261 288.057 448.565 287.873 442.823L286.123 407.082C285.736 399.301 285.744 391.506 286.147 383.726C286.331 375.048 287.87 366.453 290.707 358.25C291.559 355.932 292.606 353.69 293.837 351.549C295.092 349.22 296.598 347.036 298.328 345.035C300.104 342.933 302.097 341.025 304.274 339.341C306.494 337.777 308.828 336.381 311.256 335.164C313.38 334.192 315.574 333.38 317.82 332.737L321.411 331.84L324.569 331.052L335.42 329.462C364.227 324.969 393.003 320.089 420.944 313.444C431.334 311.079 441.566 308.064 451.579 304.417C455.278 303.369 458.921 302.13 462.493 300.706C465.293 299.627 467.971 298.253 470.481 296.607C473.161 295.093 474.936 292.367 475.236 289.303C474.819 286.287 473.215 283.562 470.781 281.733C468.743 279.794 466.542 278.032 464.204 276.468C460.746 274.328 457.182 272.363 453.527 270.582C433.538 261.894 413.09 254.306 392.272 247.851C386.737 245.764 381.327 243.359 376.069 240.648C373.165 239.312 370.334 237.823 367.589 236.187C364.241 234.206 361.09 231.908 358.181 229.326C352.197 224.196 348.323 217.032 347.307 209.216C347.277 207.25 347.123 205.315 347.17 203.396L348.024 197.592C348.979 193.905 350.287 190.319 351.928 186.882C352.985 184.497 354.239 182.204 355.677 180.027C356.962 177.798 358.403 175.926 359.75 173.945L363.513 168.731C364.644 167.199 365.666 165.497 366.781 163.903C371.071 157.183 374.905 150.183 378.258 142.949C384.892 128.435 389.922 113.24 393.259 97.6347C394.019 93.8273 394.655 90.0509 395.105 86.3208L395.618 80.9964C395.649 79.8046 395.743 78.3342 395.666 77.4983C395.983 73.7303 395.043 69.9632 392.992 66.7863C391.782 65.4157 390.137 64.5025 388.334 64.1996C386.537 63.9462 384.707 64.0454 382.948 64.4916C381.293 65.0234 379.708 65.7502 378.226 66.6568C377.421 66.8577 376.832 67.6623 376.167 68.1574L374.99 68.9773L372.931 70.741C362.898 78.7704 353.158 89.555 341.793 99.6271C332.754 108.071 323.248 115.999 313.319 123.375C309.39 126.04 305.329 128.502 301.15 130.754C297.233 132.718 293.688 134.326 290.422 135.734C281.105 140.142 270.601 141.378 260.516 139.251C257.269 138.683 254.09 137.779 251.029 136.554C247.547 134.463 250.985 130.317 258.185 123.849C265.385 117.382 275.96 107.31 289.091 93.2452C299.311 83.3275 309.067 72.3416 319.55 60.8453C324.675 55.0274 330.451 49.442 336.706 43.4078L341.537 39.0448L347.034 34.713L349.774 32.5161L354.28 29.7472C357.33 27.9994 360.271 25.8181 363.46 24.3643L373.26 20.4057C376.603 19.5711 379.947 18.7366 383.368 18.2116C386.73 17.6771 390.135 17.4659 393.537 17.5809C396.892 17.814 400.224 18.3017 403.505 19.0397C416.835 22.1969 427.979 31.2953 433.74 43.7238C436.71 50.1987 438.45 57.1697 438.871 64.281C439.258 67.9824 439.397 71.7056 439.284 75.4256C439.391 79.2797 438.725 82.1429 438.584 85.7958C437.458 95.1836 435.549 104.461 432.877 113.531C427.877 130.452 421.241 146.846 413.062 162.481C408.882 170.49 404.228 178.241 399.122 185.693C397.713 187.689 396.35 189.608 394.863 191.558L390.93 196.618L388.235 200.053L386.237 203.117C386.08 203.625 385.816 204.095 385.463 204.494L388.171 206.12C394.5 208.536 400.977 210.545 407.563 212.133L430.67 219.061C443.116 222.697 455.351 227.022 467.317 232.015L472.068 234.184L474.436 235.237L477.299 236.693L483.118 239.714L490.855 244.36C496.024 247.412 500.263 251.221 504.998 254.643L510.878 260.543C511.899 261.435 512.846 262.408 513.709 263.454L515.813 266.612C521.862 274.369 524.909 284.049 524.393 293.873C523.74 303.731 519.638 313.045 512.805 320.182C505.23 328.113 496.087 334.383 485.959 338.59C483.311 339.843 480.726 341.08 478.141 342.055L474.24 343.554L470.865 344.791C467.751 346.027 464.527 346.964 461.236 347.589C455.044 349.135 448.621 349.751 442.367 351.049C436.113 352.347 429.844 353.583 423.559 354.757C411.346 356.95 399.164 358.741 387.09 360.439C375.016 362.137 362.881 363.587 350.854 364.944L332.805 366.95L328.579 367.412C328.059 367.606 327.519 367.741 326.969 367.814L325.298 368.231L324.555 367.364Z" fill="#CCDEFF" fill-opacity="0.61"/>
<path d="M297.184 218.964C302.94 224.105 303.571 232.695 305.287 239.568C305.398 246.755 303.658 253.849 300.233 260.168C298.529 263.176 296.401 265.922 293.915 268.323L290.756 270.69C281.503 275.683 271.056 278.04 260.555 277.504C251.456 277.427 242.433 275.833 233.857 272.788C226.177 270.834 219.228 266.697 213.848 260.878C211.746 258.282 210.36 255.181 209.827 251.883C209.345 248.598 209.808 245.242 211.162 242.21C213.317 237.529 217.012 233.728 221.63 231.441C224.231 230.003 225.994 233.114 227.091 237.248C228.003 241.02 228.715 244.839 229.223 248.687C229.223 248.687 229.223 248.687 229.347 249.182C228.637 249.05 227.917 248.987 227.195 248.996C227.476 248.993 227.751 248.924 228 248.795C228.568 248.588 229.093 248.279 229.548 247.882L230.152 247.403L230.524 247.31L231.592 247.635C232.536 247.728 233.17 248.688 234.423 249.231C237.153 250.724 240 251.994 242.935 253.026L247.826 254.7L250.441 255.428C251.107 255.722 251.014 255.877 251.385 256.048C252.76 256.963 254.423 257.343 256.059 257.117C257.648 256.92 259.207 256.531 260.703 255.958L261.694 255.711C266.578 254.176 269.39 249.069 268.075 244.12C267.271 240.96 265.04 238.355 262.041 237.075C256.781 234.952 250.771 235.993 246.531 239.763C242.435 244.444 239.073 249.719 236.557 255.407C236.019 256.804 235.339 258.142 234.528 259.4C233.791 260.343 232.944 261.195 232.004 261.937C231.049 262.44 229.987 262.706 228.908 262.71C226.063 262.728 223.243 262.18 220.612 261.097C218.956 260.524 217.331 260.074 215.799 259.47C213.286 258.515 211.185 256.713 209.857 254.375C208.335 251.84 207.603 248.908 207.756 245.954C209.222 237.01 213.179 228.659 219.172 221.859C219.869 220.962 220.705 220.095 221.48 219.244L225.057 215.655C227.936 213.489 230.553 211.323 233.851 209.25C239.902 206.244 246.288 203.965 252.876 202.462C255.105 201.906 257.474 201.644 259.749 201.536L266.343 201.601C270.561 202.233 274.745 203.077 278.879 204.128C286.453 206.967 292.991 212.031 297.633 218.654L297.184 218.964Z" fill="#CCDEFF" fill-opacity="0.61"/>
</svg>
